<?xml version="1.0" encoding="UTF-8" standalone="no"?>
<svg xmlns:rdf="http://www.w3.org/1999/02/22-rdf-syntax-ns#" xmlns="http://www.w3.org/2000/svg" height="265pt" width="283pt" version="1.1" xmlns:cc="http://creativecommons.org/ns#" xmlns:dc="http://purl.org/dc/elements/1.1/" viewBox="0 0 283 265">
<path fill="#010202" d="m172.94 37.98c5.88-13.94 13.68-27.86 25.92-37.14-0.14 7.72-0.5 15.44-0.47 23.16 12.51 2.96 17.04-11.4 26.66-15.96 11.75-6.4 27.79-11.27 39.37-2.04-7 8.31-15.75 14.9-24.51 21.23 0.11 0.64 0.33 1.9 0.44 2.54 16.75-0.32 37.87 7.16 41.69 25.07-11.59 1.48-23.25 2.22-34.88 3.33-0.04 0.66-0.11 1.98-0.14 2.64 12.43 8.45 18.62 22.36 24.7 35.53 0.06 1.89-0.44 3.74-0.77 5.59-10.39-2.9-19.36-9.38-29.82-12.03-1.46 12.75 1.56 25.16 3.24 37.66-0.12 23.12 0.71 46.4-3.86 69.2-0.09 16.84-2.33 33.76-8.2 49.59-61.33 17.87-126.26 6.99-189.07 9.74-14.28 0.56-27.86 10.35-42.34 6.95 9.19-16.13 9.62-35.22 11.06-53.24 0.19-45.14-3.22-90.22-3.39-135.37 1.77-11.39 1.69-23.89 9.01-33.48 12.07 1.76 23.76-0.54 35.21-4.18 39.99-0.93 80.17 5.01 120.15 1.21m23.22-4.97c-0.93-5.4-1.65-10.82-2.46-16.23-3.93 5.93-8.42 11.89-10.63 18.65 1.3 18.17-1.46 36.04-7.8 53.01 1.78 0.01 3.57-0.01 5.36-0.01 4.74 9.11 10.21-0.18 16.57-0.27 12.51-2.25 13.63 13.23 18.93 20.72 0.69-0.1 2.07-0.28 2.76-0.38 0.98-10.93-1.36-21.72-5.63-31.76 18.59-2.3 33.45 9.63 49.66 16.3-7.11-14.56-17.79-26.96-29.06-38.43 9.43-4.26 20.92-3.73 30.34-8.88-12.65-9.43-28.5-2.19-42.32-5.75 6.69-13.66 19.59-22.52 30.25-32.79-21.66 0.45-34.88 22.73-55.97 25.82m-136.58 16.68c-11.34 1.27-25.14-2.62-34.43 5.83-10.91 32.48-6.94 67.17-3.22 100.54 2.96 21.45-1.49 43.67 2.74 64.72 3.25-6.46 5.14-13.7 9.62-19.48 21.73-21.07 32.31-51.6 57.65-69.35 17.93-18 30.96-42.68 55.62-52.74 7.32-0.85 14.76-0.05 22.12-0.27 2.23-10.12 2.75-20.51 4.6-30.69-37.82 2.22-76.57-1.49-114.7 1.44m161.41 30.18c5.41 11.98 12.22 34.17-2.98 41.19-2.67-10.82-10.43-19.3-18.25-26.81-3.89 0.72-5.26 5.81-7.69 8.63 7.78 11.17-1.1 23.98-5.37 34.78-19.56 17.23-39.1 34.76-60.97 49.07-22.62 21.84-51.16 35.96-73.87 57.67 0.13 0.39 0.38 1.17 0.51 1.56 34.37-0.85 68.81-1.52 103.21-0.72 19.65 3.72 39.5-0.72 59.13-2.32 5.91-3.79 8.79-11.52 11.5-17.77 10.77-46.87 3.93-95.37 5.7-142.96-3.65-0.75-7.29-1.54-10.92-2.32m-95.87 29.84c4.74 5.68 18.53 8.32 17.3 17.34-7.23-4.74-13.27-16.42-23.26-13.22-10.09 7.92-18.28 18-26.18 28.03 3.6 5.52 20.52 10.6 12.32 18.33-4.71-5.52-10.92-9.44-17.08-13.14-13.97 20.19-29.82 39.06-43.37 59.52 4.75 2.93 10.66 5.63 11.96 11.65-6.67-0.94-12.88-7.11-19.15-6.68-8.83 15.62-24.25 28.17-27.53 46.41 16.42-1.13 29.6-13.04 41.12-23.71 46.05-38.24 102.01-66.23 137.34-116.08 0.37-15.71-13.38-30.98-29.48-31.3-16.93-7.6-25.46 12.47-33.99 22.85z"/>
<path fill="#98fd98" d="m196.16 33.01c21.09-3.09 34.31-25.37 55.97-25.82-10.66 10.27-23.56 19.13-30.25 32.79 13.82 3.56 29.67-3.68 42.32 5.75-9.42 5.15-20.91 4.62-30.34 8.88 11.27 11.47 21.95 23.87 29.06 38.43-16.21-6.67-31.07-18.6-49.66-16.3 4.27 10.04 6.61 20.83 5.63 31.76-0.69 0.1-2.07 0.28-2.76 0.38-5.3-7.49-6.42-22.97-18.93-20.72-6.36 0.09-11.83 9.38-16.57 0.27-1.79 0-3.58 0.02-5.36 0.01 6.34-16.97 9.1-34.84 7.8-53.01 2.21-6.76 6.7-12.72 10.63-18.65 0.81 5.41 1.53 10.83 2.46 16.23m4.14 17.85c-0.94 2.66-1.75 5.36-2.44 8.1l6.08-0.52c1.3-2.09 2.68-4.15 4.15-6.13-2.59-0.51-5.19-1-7.79-1.45m15.91 2.89c-1.13 4.53-1.99 9.16-2.14 13.83 1.69 0.48 3.37 0.96 5.07 1.43-0.72-5.12-1.09-10.38-2.93-15.26z"/>
<path fill="#98fefc" d="m59.58 49.69c38.13-2.93 76.88 0.78 114.7-1.44-1.85 10.18-2.37 20.57-4.6 30.69-7.36 0.22-14.8-0.58-22.12 0.27-24.66 10.06-37.69 34.74-55.62 52.74-25.34 17.75-35.92 48.28-57.65 69.35-4.48 5.78-6.37 13.02-9.62 19.48-4.23-21.05 0.22-43.27-2.74-64.72-3.72-33.37-7.69-68.06 3.22-100.54 9.29-8.45 23.09-4.56 34.43-5.83m-19.38 16.36c-2.8 3.86-6.33 7.69-6.02 12.88 7.13 1.57 7.75-6.74 10.94-10.9l-4.92-1.98m19.77 1.16c-0.44 4.63 3.39 10.3 7.58 4.38 6.81-4.57-3.93-4.27-7.58-4.38m36.26 22.85c-14.91 19.81-32.08 38.3-44.06 60.04 5.69-0.03 7.97-6.12 11.44-9.56 15.6-18.34 29.01-38.61 46.57-55.22-4.88 0.26-11.48-0.66-13.95 4.74m-34 26.98c9.33-3.12 12.91-14.51 19.58-21.1-10.78-2.96-16.47 13.93-19.58 21.1m-31.12-17.96c0.28 3.63 0.55 7.25 0.8 10.88 0.78 0.05 2.33 0.14 3.11 0.19 0.9-3.66 1.55-7.39 1.98-11.13-1.47 0.01-4.42 0.05-5.89 0.06z"/>
<path fill="#07652c" d="m200.3 50.86c2.6 0.45 5.2 0.94 7.79 1.45-1.47 1.98-2.85 4.04-4.15 6.13l-6.08 0.52c0.69-2.74 1.5-5.44 2.44-8.1z"/>
<path fill="#0a6529" d="m216.21 53.75c1.84 4.88 2.21 10.14 2.93 15.26-1.7-0.47-3.38-0.95-5.07-1.43 0.15-4.67 1.01-9.3 2.14-13.83z"/>
<path fill="#010706" d="m40.2 66.05l4.92 1.98c-3.19 4.16-3.81 12.47-10.94 10.9-0.31-5.19 3.22-9.02 6.02-12.88z"/>
<path fill="#01090b" d="m59.97 67.21c3.65 0.11 14.39-0.19 7.58 4.38-4.19 5.92-8.02 0.25-7.58-4.38z"/>
<path fill="#98fefc" d="m220.99 79.87c3.63 0.78 7.27 1.57 10.92 2.32-1.77 47.59 5.07 96.09-5.7 142.96-2.71 6.25-5.59 13.98-11.5 17.77-19.63 1.6-39.48 6.04-59.13 2.32-34.4-0.8-68.84-0.13-103.21 0.72-0.13-0.39-0.38-1.17-0.51-1.56 22.71-21.71 51.25-35.83 73.87-57.67 21.87-14.31 41.41-31.84 60.97-49.07 4.27-10.8 13.15-23.61 5.37-34.78 2.43-2.82 3.8-7.91 7.69-8.63 7.82 7.51 15.58 15.99 18.25 26.81 15.2-7.02 8.39-29.21 2.98-41.19m-95.21 138.37c2.74 2.69 5.52 0.39 7.86-1.57 16.32-13.52 34.9-24.33 50.45-38.68 5.66-3.27 1.38-7.84-2.09-10.27-16.55 19.53-43.75 27.1-56.22 50.52m39.21-9.6c5.81-1.87 10.8-5.37 15.76-8.82-1.04-2.37-2.08-4.74-3.12-7.1-5.33 4.17-10.15 9.57-12.64 15.92m17.97 25.18c1.31 0.4 2.61 0.81 3.93 1.22 1.77-2.69 3.53-5.38 5.32-8.05-1.68-1.11-5.03-3.34-6.71-4.45-1.03 3.72-1.78 7.5-2.54 11.28z"/>
<path fill="#010606" d="m96.23 90.06c2.47-5.4 9.07-4.48 13.95-4.74-17.56 16.61-30.97 36.88-46.57 55.22-3.47 3.44-5.75 9.53-11.44 9.56 11.98-21.74 29.15-40.23 44.06-60.04z"/>
<path fill="#fb9932" d="m125.12 109.71c8.53-10.38 17.06-30.45 33.99-22.85 16.1 0.32 29.85 15.59 29.48 31.3-35.33 49.85-91.29 77.84-137.34 116.08-11.52 10.67-24.7 22.58-41.12 23.71 3.28-18.24 18.7-30.79 27.53-46.41 6.27-0.43 12.48 5.74 19.15 6.68-1.3-6.02-7.21-8.72-11.96-11.65 13.55-20.46 29.4-39.33 43.37-59.52 6.16 3.7 12.37 7.62 17.08 13.14 8.2-7.73-8.72-12.81-12.32-18.33 7.9-10.03 16.09-20.11 26.18-28.03 9.99-3.2 16.03 8.48 23.26 13.22 1.23-9.02-12.56-11.66-17.3-17.34m28.81-4.58c0.13 1.69 0.4 5.08 0.53 6.78 5.18 0.93 6.28-4.89 6.48-8.77-2.39 0.49-4.72 1.2-7.01 1.99m0.22 23.08c-0.8 3.79-1.6 7.58-2.13 11.42 0.74 0.07 2.21 0.22 2.95 0.3 0.92-3.78 1.56-7.62 1.93-11.48-0.69-0.06-2.06-0.18-2.75-0.24m-31.28 24.26c-1.39-3.12-2.95-6.16-4.53-9.18-3.12 3.73 0.41 8.45 4.53 9.18m-42.74 34.97c0.17 3.69 0.22 8.55 4.04 10.44 5.61-0.89 8.22-6.5 11.14-10.71-4.93-1.99-10.18-0.81-15.18 0.27m-20.07 18.2c1.64 0.12 3.28 0.24 4.93 0.36-0.32-2.79-0.61-5.54-0.97-8.3-2.5 1.96-3.97 4.74-3.96 7.94z"/>
<path fill="#010707" d="m62.23 117.04c3.11-7.17 8.8-24.06 19.58-21.1-6.67 6.59-10.25 17.98-19.58 21.1z"/>
<path fill="#000908" d="m31.11 99.08c1.47-0.01 4.42-0.05 5.89-0.06-0.43 3.74-1.08 7.47-1.98 11.13-0.78-0.05-2.33-0.14-3.11-0.19-0.25-3.63-0.52-7.25-0.8-10.88z"/>
<path fill="#110301" d="m153.93 105.13c2.29-0.79 4.62-1.5 7.01-1.99-0.2 3.88-1.3 9.7-6.48 8.77-0.13-1.7-0.4-5.09-0.53-6.78z"/>
<path fill="#1e0300" d="m154.15 128.21c0.69 0.06 2.06 0.18 2.75 0.24-0.37 3.86-1.01 7.7-1.93 11.48-0.74-0.08-2.21-0.23-2.95-0.3 0.53-3.84 1.33-7.63 2.13-11.42z"/>
<path fill="#53250b" d="m122.87 152.47c-4.12-0.73-7.65-5.45-4.53-9.18 1.58 3.02 3.14 6.06 4.53 9.18z"/>
<path fill="#020404" d="m125.78 218.24c12.47-23.42 39.67-30.99 56.22-50.52 3.47 2.43 7.75 7 2.09 10.27-15.55 14.35-34.13 25.16-50.45 38.68-2.34 1.96-5.12 4.26-7.86 1.57z"/>
<path fill="#080201" d="m80.13 187.44c5-1.08 10.25-2.26 15.18-0.27-2.92 4.21-5.53 9.82-11.14 10.71-3.82-1.89-3.87-6.75-4.04-10.44z"/>
<path fill="#010606" d="m164.99 208.64c2.49-6.35 7.31-11.75 12.64-15.92 1.04 2.36 2.08 4.73 3.12 7.1-4.96 3.45-9.95 6.95-15.76 8.82z"/>
<path fill="#180100" d="m60.06 205.64c-0.01-3.2 1.46-5.98 3.96-7.94 0.36 2.76 0.65 5.51 0.97 8.3-1.65-0.12-3.29-0.24-4.93-0.36z"/>
<path fill="#010807" d="m182.96 233.82c0.76-3.78 1.51-7.56 2.54-11.28 1.68 1.11 5.03 3.34 6.71 4.45-1.79 2.67-3.55 5.36-5.32 8.05-1.32-0.41-2.62-0.82-3.93-1.22z"/>
<path d="m172.94 37.98c5.88-13.94 13.68-27.86 25.92-37.14-0.14 7.72-0.5 15.44-0.47 23.16 12.51 2.96 17.04-11.4 26.66-15.96 11.75-6.4 27.79-11.27 39.37-2.04-7 8.31-15.75 14.9-24.51 21.23 0.11 0.64 0.33 1.9 0.44 2.54 16.75-0.32 37.87 7.16 41.69 25.07-11.59 1.48-23.25 2.22-34.88 3.33-0.04 0.66-0.11 1.98-0.14 2.64 12.43 8.45 18.62 22.36 24.7 35.53 0.06 1.89-0.44 3.74-0.77 5.59-10.39-2.9-19.36-9.38-29.82-12.03-1.46 12.75 1.56 25.16 3.24 37.66-0.12 23.12 0.71 46.4-3.86 69.2-0.09 16.84-2.33 33.76-8.2 49.59-61.33 17.87-126.26 6.99-189.07 9.74-14.28 0.56-27.86 10.35-42.34 6.95 9.19-16.13 9.62-35.22 11.06-53.24 0.19-45.14-3.22-90.22-3.39-135.37 1.77-11.39 1.69-23.89 9.01-33.48 12.07 1.76 23.76-0.54 35.21-4.18 39.99-0.93 80.17 5.01 120.15 1.21m23.22-4.97c-0.93-5.4-1.65-10.82-2.46-16.23-3.93 5.93-8.42 11.89-10.63 18.65 1.3 18.17-1.46 36.04-7.8 53.01 1.78 0.01 3.57-0.01 5.36-0.01 4.74 9.11 10.21-0.18 16.57-0.27 12.51-2.25 13.63 13.23 18.93 20.72 0.69-0.1 2.07-0.28 2.76-0.38 0.98-10.93-1.36-21.72-5.63-31.76 18.59-2.3 33.45 9.63 49.66 16.3-7.11-14.56-17.79-26.96-29.06-38.43 9.43-4.26 20.92-3.73 30.34-8.88-12.65-9.43-28.5-2.19-42.32-5.75 6.69-13.66 19.59-22.52 30.25-32.79-21.66 0.45-34.88 22.73-55.97 25.82m-136.58 16.68c-11.34 1.27-25.14-2.62-34.43 5.83-10.91 32.48-6.94 67.17-3.22 100.54 2.96 21.45-1.49 43.67 2.74 64.72 3.25-6.46 5.14-13.7 9.62-19.48 21.73-21.07 32.31-51.6 57.65-69.35 17.93-18 30.96-42.68 55.62-52.74 7.32-0.85 14.76-0.05 22.12-0.27 2.23-10.12 2.75-20.51 4.6-30.69-37.82 2.22-76.57-1.49-114.7 1.44m161.41 30.18c5.41 11.98 12.22 34.17-2.98 41.19-2.67-10.82-10.43-19.3-18.25-26.81-3.89 0.72-5.26 5.81-7.69 8.63 7.78 11.17-1.1 23.98-5.37 34.78-19.56 17.23-39.1 34.76-60.97 49.07-22.62 21.84-51.16 35.96-73.87 57.67 0.13 0.39 0.38 1.17 0.51 1.56 34.37-0.85 68.81-1.52 103.21-0.72 19.65 3.72 39.5-0.72 59.13-2.32 5.91-3.79 8.79-11.52 11.5-17.77 10.77-46.87 3.93-95.37 5.7-142.96-3.65-0.75-7.29-1.54-10.92-2.32m-95.87 29.84c4.74 5.68 18.53 8.32 17.3 17.34-7.23-4.74-13.27-16.42-23.26-13.22-10.09 7.92-18.28 18-26.18 28.03 3.6 5.52 20.52 10.6 12.32 18.33-4.71-5.52-10.92-9.44-17.08-13.14-13.97 20.19-29.82 39.06-43.37 59.52 4.75 2.93 10.66 5.63 11.96 11.65-6.67-0.94-12.88-7.11-19.15-6.68-8.83 15.62-24.25 28.17-27.53 46.41 16.42-1.13 29.6-13.04 41.12-23.71 46.05-38.24 102.01-66.23 137.34-116.08 0.37-15.71-13.38-30.98-29.48-31.3-16.93-7.6-25.46 12.47-33.99 22.85z" fill="#010202"/>
<path d="m196.16 33.01c21.09-3.09 34.31-25.37 55.97-25.82-10.66 10.27-23.56 19.13-30.25 32.79 13.82 3.56 29.67-3.68 42.32 5.75-9.42 5.15-20.91 4.62-30.34 8.88 11.27 11.47 21.95 23.87 29.06 38.43-16.21-6.67-31.07-18.6-49.66-16.3 4.27 10.04 6.61 20.83 5.63 31.76-0.69 0.1-2.07 0.28-2.76 0.38-5.3-7.49-6.42-22.97-18.93-20.72-6.36 0.09-11.83 9.38-16.57 0.27-1.79 0-3.58 0.02-5.36 0.01 6.34-16.97 9.1-34.84 7.8-53.01 2.21-6.76 6.7-12.72 10.63-18.65 0.81 5.41 1.53 10.83 2.46 16.23m4.14 17.85c-0.94 2.66-1.75 5.36-2.44 8.1l6.08-0.52c1.3-2.09 2.68-4.15 4.15-6.13-2.59-0.51-5.19-1-7.79-1.45m15.91 2.89c-1.13 4.53-1.99 9.16-2.14 13.83 1.69 0.48 3.37 0.96 5.07 1.43-0.72-5.12-1.09-10.38-2.93-15.26z" fill="#98fd98"/>
<path d="m59.58 49.69c38.13-2.93 76.88 0.78 114.7-1.44-1.85 10.18-2.37 20.57-4.6 30.69-7.36 0.22-14.8-0.58-22.12 0.27-24.66 10.06-37.69 34.74-55.62 52.74-25.34 17.75-35.92 48.28-57.65 69.35-4.48 5.78-6.37 13.02-9.62 19.48-4.23-21.05 0.22-43.27-2.74-64.72-3.72-33.37-7.69-68.06 3.22-100.54 9.29-8.45 23.09-4.56 34.43-5.83m-19.38 16.36c-2.8 3.86-6.33 7.69-6.02 12.88 7.13 1.57 7.75-6.74 10.94-10.9l-4.92-1.98m19.77 1.16c-0.44 4.63 3.39 10.3 7.58 4.38 6.81-4.57-3.93-4.27-7.58-4.38m36.26 22.85c-14.91 19.81-32.08 38.3-44.06 60.04 5.69-0.03 7.97-6.12 11.44-9.56 15.6-18.34 29.01-38.61 46.57-55.22-4.88 0.26-11.48-0.66-13.95 4.74m-34 26.98c9.33-3.12 12.91-14.51 19.58-21.1-10.78-2.96-16.47 13.93-19.58 21.1m-31.12-17.96c0.28 3.63 0.55 7.25 0.8 10.88 0.78 0.05 2.33 0.14 3.11 0.19 0.9-3.66 1.55-7.39 1.98-11.13-1.47 0.01-4.42 0.05-5.89 0.06z" fill="#98fefc"/>
<path d="m200.3 50.86c2.6 0.45 5.2 0.94 7.79 1.45-1.47 1.98-2.85 4.04-4.15 6.13l-6.08 0.52c0.69-2.74 1.5-5.44 2.44-8.1z" fill="#07652c"/>
<path d="m216.21 53.75c1.84 4.88 2.21 10.14 2.93 15.26-1.7-0.47-3.38-0.95-5.07-1.43 0.15-4.67 1.01-9.3 2.14-13.83z" fill="#0a6529"/>
<path d="m40.2 66.05l4.92 1.98c-3.19 4.16-3.81 12.47-10.94 10.9-0.31-5.19 3.22-9.02 6.02-12.88z" fill="#010706"/>
<path d="m59.97 67.21c3.65 0.11 14.39-0.19 7.58 4.38-4.19 5.92-8.02 0.25-7.58-4.38z" fill="#01090b"/>
<path d="m220.99 79.87c3.63 0.78 7.27 1.57 10.92 2.32-1.77 47.59 5.07 96.09-5.7 142.96-2.71 6.25-5.59 13.98-11.5 17.77-19.63 1.6-39.48 6.04-59.13 2.32-34.4-0.8-68.84-0.13-103.21 0.72-0.13-0.39-0.38-1.17-0.51-1.56 22.71-21.71 51.25-35.83 73.87-57.67 21.87-14.31 41.41-31.84 60.97-49.07 4.27-10.8 13.15-23.61 5.37-34.78 2.43-2.82 3.8-7.91 7.69-8.63 7.82 7.51 15.58 15.99 18.25 26.81 15.2-7.02 8.39-29.21 2.98-41.19m-95.21 138.37c2.74 2.69 5.52 0.39 7.86-1.57 16.32-13.52 34.9-24.33 50.45-38.68 5.66-3.27 1.38-7.84-2.09-10.27-16.55 19.53-43.75 27.1-56.22 50.52m39.21-9.6c5.81-1.87 10.8-5.37 15.76-8.82-1.04-2.37-2.08-4.74-3.12-7.1-5.33 4.17-10.15 9.57-12.64 15.92m17.97 25.18c1.31 0.4 2.61 0.81 3.93 1.22 1.77-2.69 3.53-5.38 5.32-8.05-1.68-1.11-5.03-3.34-6.71-4.45-1.03 3.72-1.78 7.5-2.54 11.28z" fill="#98fefc"/>
<path d="m96.23 90.06c2.47-5.4 9.07-4.48 13.95-4.74-17.56 16.61-30.97 36.88-46.57 55.22-3.47 3.44-5.75 9.53-11.44 9.56 11.98-21.74 29.15-40.23 44.06-60.04z" fill="#010606"/>
<path d="m125.12 109.71c8.53-10.38 17.06-30.45 33.99-22.85 16.1 0.32 29.85 15.59 29.48 31.3-35.33 49.85-91.29 77.84-137.34 116.08-11.52 10.67-24.7 22.58-41.12 23.71 3.28-18.24 18.7-30.79 27.53-46.41 6.27-0.43 12.48 5.74 19.15 6.68-1.3-6.02-7.21-8.72-11.96-11.65 13.55-20.46 29.4-39.33 43.37-59.52 6.16 3.7 12.37 7.62 17.08 13.14 8.2-7.73-8.72-12.81-12.32-18.33 7.9-10.03 16.09-20.11 26.18-28.03 9.99-3.2 16.03 8.48 23.26 13.22 1.23-9.02-12.56-11.66-17.3-17.34m28.81-4.58c0.13 1.69 0.4 5.08 0.53 6.78 5.18 0.93 6.28-4.89 6.48-8.77-2.39 0.49-4.72 1.2-7.01 1.99m0.22 23.08c-0.8 3.79-1.6 7.58-2.13 11.42 0.74 0.07 2.21 0.22 2.95 0.3 0.92-3.78 1.56-7.62 1.93-11.48-0.69-0.06-2.06-0.18-2.75-0.24m-31.28 24.26c-1.39-3.12-2.95-6.16-4.53-9.18-3.12 3.73 0.41 8.45 4.53 9.18m-42.74 34.97c0.17 3.69 0.22 8.55 4.04 10.44 5.61-0.89 8.22-6.5 11.14-10.71-4.93-1.99-10.18-0.81-15.18 0.27m-20.07 18.2c1.64 0.12 3.28 0.24 4.93 0.36-0.32-2.79-0.61-5.54-0.97-8.3-2.5 1.96-3.97 4.74-3.96 7.94z" fill="#fb9932"/>
<path d="m62.23 117.04c3.11-7.17 8.8-24.06 19.58-21.1-6.67 6.59-10.25 17.98-19.58 21.1z" fill="#010707"/>
<path d="m31.11 99.08c1.47-0.01 4.42-0.05 5.89-0.06-0.43 3.74-1.08 7.47-1.98 11.13-0.78-0.05-2.33-0.14-3.11-0.19-0.25-3.63-0.52-7.25-0.8-10.88z" fill="#000908"/>
<path d="m153.93 105.13c2.29-0.79 4.62-1.5 7.01-1.99-0.2 3.88-1.3 9.7-6.48 8.77-0.13-1.7-0.4-5.09-0.53-6.78z" fill="#110301"/>
<path d="m154.15 128.21c0.69 0.06 2.06 0.18 2.75 0.24-0.37 3.86-1.01 7.7-1.93 11.48-0.74-0.08-2.21-0.23-2.95-0.3 0.53-3.84 1.33-7.63 2.13-11.42z" fill="#1e0300"/>
<path d="m122.87 152.47c-4.12-0.73-7.65-5.45-4.53-9.18 1.58 3.02 3.14 6.06 4.53 9.18z" fill="#53250b"/>
<path d="m125.78 218.24c12.47-23.42 39.67-30.99 56.22-50.52 3.47 2.43 7.75 7 2.09 10.27-15.55 14.35-34.13 25.16-50.45 38.68-2.34 1.96-5.12 4.26-7.86 1.57z" fill="#020404"/>
<path d="m80.13 187.44c5-1.08 10.25-2.26 15.18-0.27-2.92 4.21-5.53 9.82-11.14 10.71-3.82-1.89-3.87-6.75-4.04-10.44z" fill="#080201"/>
<path d="m164.99 208.64c2.49-6.35 7.31-11.75 12.64-15.92 1.04 2.36 2.08 4.73 3.12 7.1-4.96 3.45-9.95 6.95-15.76 8.82z" fill="#010606"/>
<path d="m60.06 205.64c-0.01-3.2 1.46-5.98 3.96-7.94 0.36 2.76 0.65 5.51 0.97 8.3-1.65-0.12-3.29-0.24-4.93-0.36z" fill="#180100"/>
<path d="m182.96 233.82c0.76-3.78 1.51-7.56 2.54-11.28 1.68 1.11 5.03 3.34 6.71 4.45-1.79 2.67-3.55 5.36-5.32 8.05-1.32-0.41-2.62-0.82-3.93-1.22z" fill="#010807"/>
</svg>
