<?xml version="1.0" encoding="UTF-8" standalone="no"?>
<!-- Created with Inkscape (http://www.inkscape.org/) -->
<svg height="72" id="svg2"
     inkscape:version="0.91 r13725"
     version="1.1" width="40" xmlns="http://www.w3.org/2000/svg"
     xmlns:cc="http://creativecommons.org/ns#" xmlns:dc="http://purl.org/dc/elements/1.1/"
     xmlns:inkscape="http://www.inkscape.org/namespaces/inkscape"
     xmlns:rdf="http://www.w3.org/1999/02/22-rdf-syntax-ns#">
  <defs id="defs4"/>
  <metadata id="metadata7">
    <rdf:RDF>
      <cc:Work rdf:about="">
        <dc:format>image/svg+xml</dc:format>
        <dc:type rdf:resource="http://purl.org/dc/dcmitype/StillImage"/>
        <dc:title/>
      </cc:Work>
    </rdf:RDF>
  </metadata>
  <g id="layer1" transform="translate(-85.908678,-382.30617)">
    <g id="g3128" transform="translate(134.35029,-0.99998396)">
      <path
        d="m -32.441612,451.30615 0,-4 -4,0 -4,0 0,-12 0,-12 -4,0 -4,0 0,-8 0,-8 4,0 4,0 0,-4 0,-4 4,0 4,0 0,-4 0,-4 -4,0 -4,0 0,-4 0,-4 4,0 4,0 0,4 0,4 4,0 4,0 0,-4 0,-4 4,0 4,0 0,4 0,4 -4,0 -4,0 0,4 0,4 4,0 4,0 0,4 0,4 4,0 4,0 0,8 0,8 -4,0 -4,0 0,12 0,12 -4,0 -4,0 0,4 0,4 -4,0 -4,0 0,-4 z"
        id="path3138" style="fill:#fe831d"/>
      <path
        d="m -32.441612,451.30615 0,-4 -4,0 -4,0 0,-12 0,-12 -4,0 -4,0 0,-8 0,-8 4,0 4,0 0,-4 0,-4 4,0 4,0 0,-4 0,-4 -4,0 -4,0 0,-4 0,-4 4,0 4,0 0,4 0,4 4,0 4,0 0,-4 0,-4 4,0 4,0 0,4 0,4 -4,0 -4,0 0,4 0,4 4,0 4,0 0,4 0,4 4,0 4,0 0,8 0,8 -4,0 -4,0 0,12 0,12 -4,0 -4,0 0,4 0,4 -4,0 -4,0 0,-4 z m 8,-48 0,-4 -4,0 -4,0 0,4 0,4 4,0 4,0 0,-4 z"
        id="path3136" style="fill:#fe6500"/>
      <path
        d="m -32.441612,451.30615 0,-4 -4,0 -4,0 0,-12 0,-12 -4,0 -4,0 0,-8 0,-8 4,0 4,0 0,-4 0,-4 4,0 4,0 0,-4 0,-4 -4,0 -4,0 0,-4 0,-4 4,0 4,0 0,4 0,4 4,0 4,0 0,-4 0,-4 4,0 4,0 0,4 0,4 -4,0 -4,0 0,4 0,4 4,0 4,0 0,4 0,4 4,0 4,0 0,8 0,8 -4,0 -4,0 0,12 0,12 -4,0 -4,0 0,4 0,4 -4,0 -4,0 0,-4 z m 8,-8 0,-4 -4,0 -4,0 0,4 0,4 4,0 4,0 0,-4 z m 0,-16 0,-4 4,0 4,0 0,-4 0,-4 -4,0 -4,0 0,-8 0,-8 -4,0 -4,0 0,8 0,8 -4,0 -4,0 0,4 0,4 4,0 4,0 0,4 0,4 4,0 4,0 0,-4 z m -8,-8 0,-4 4,0 4,0 0,4 0,4 -4,0 -4,0 0,-4 z"
        id="path3134" style="fill:#e04700"/>
      <path
        d="m -32.441612,451.30615 0,-4 -4,0 -4,0 0,-12 0,-12 -4,0 -4,0 0,-8 0,-8 4,0 4,0 0,-4 0,-4 4,0 4,0 0,-4 0,-4 -4,0 -4,0 0,-4 0,-4 4,0 4,0 0,4 0,4 4,0 4,0 0,-4 0,-4 4,0 4,0 0,4 0,4 -4,0 -4,0 0,4 0,4 4,0 4,0 0,4 0,4 4,0 4,0 0,8 0,8 -4,0 -4,0 0,12 0,12 -4,0 -4,0 0,4 0,4 -4,0 -4,0 0,-4 z m 8,-16 0,-12 4,0 4,0 0,-8 0,-8 -4,0 -4,0 0,-4 0,-4 -4,0 -4,0 0,4 0,4 -4,0 -4,0 0,8 0,8 4,0 4,0 0,12 0,12 4,0 4,0 0,-12 z"
        id="path3132" style="fill:#486c17"/>
      <path
        d="m -32.441612,451.30615 0,-4 -4,0 -4,0 0,-12 0,-12 -4,0 -4,0 0,-8 0,-8 4,0 4,0 0,-4 0,-4 4,0 4,0 0,4 0,4 -4,0 -4,0 0,8 0,8 4,0 4,0 0,12 0,12 4,0 4,0 0,-12 0,-12 4,0 4,0 0,-8 0,-8 -4,0 -4,0 0,-4 0,-4 4,0 4,0 0,4 0,4 4,0 4,0 0,8 0,8 -4,0 -4,0 0,12 0,12 -4,0 -4,0 0,4 0,4 -4,0 -4,0 0,-4 z"
        id="path3130" style="fill:#000000"/>
    </g>
  </g>
</svg>
