<svg xmlns="http://www.w3.org/2000/svg" id="svg839" width="807.14" height="1247.043" preserveAspectRatio="xMidYMid meet" version="1.0" viewBox="0 0 605.355 935.283"><metadata id="metadata833">Created by potrace 1.15, written by Peter Selinger 2001-2017</metadata><g id="g837" fill="#000" stroke="none" transform="matrix(0.1,0,0,-0.1,-674.6,935.8076)"><path id="path835" d="m 11060,9332 c -149,-54 -276,-148 -475,-354 -167,-172 -242,-300 -289,-489 -60,-243 -48,-458 50,-969 56,-288 64,-347 64,-467 0,-143 -29,-313 -80,-467 -43,-128 -159,-373 -191,-402 -17,-15 -33,-16 -157,-8 -177,11 -421,11 -544,0 l -97,-8 -25,83 c -56,179 -71,294 -70,544 0,216 2,237 28,350 15,66 47,183 71,260 23,77 66,216 94,308 85,278 105,392 106,592 0,200 -11,256 -84,410 -88,184 -319,463 -460,554 -77,49 -159,81 -209,81 -124,0 -320,-192 -493,-483 -88,-148 -222,-426 -263,-546 -101,-292 -106,-540 -20,-931 73,-330 236,-702 538,-1230 80,-140 146,-263 146,-273 0,-10 -30,-52 -66,-95 -87,-101 -191,-260 -298,-453 l -87,-157 -52,21 c -73,29 -243,31 -304,3 l -42,-19 23,-28 c 33,-39 58,-109 54,-150 l -3,-34 -69,-7 c -188,-18 -285,-67 -307,-154 -11,-44 -12,-44 -83,-65 -105,-31 -280,-101 -376,-149 -164,-82 -268,-169 -318,-264 -22,-44 -26,-63 -26,-137 0,-73 4,-94 28,-143 77,-157 291,-307 616,-433 63,-25 116,-46 117,-47 5,-5 -18,-735 -63,-2001 -9,-247 -14,-504 -12,-571 3,-120 3,-121 47,-209 193,-391 905,-687 1866,-777 183,-17 737,-17 920,0 666,63 1205,219 1550,450 244,163 365,342 365,541 0,77 -56,1539 -85,2215 -9,202 -15,369 -13,371 2,1 37,15 78,30 344,129 568,299 625,473 25,77 17,209 -18,286 -73,159 -266,258 -739,382 l -147,38 29,18 c 38,22 37,30 -1,63 -70,58 -185,94 -302,95 h -57 l 6,28 c 9,39 48,103 83,136 17,17 31,34 31,38 0,5 -21,18 -47,30 -61,27 -189,34 -261,15 l -54,-15 -35,57 c -103,162 -132,205 -208,307 -46,60 -115,144 -154,186 -39,42 -71,82 -71,89 0,7 55,96 122,198 294,448 581,921 654,1076 124,265 197,613 179,850 -28,376 -197,940 -360,1200 -110,177 -208,217 -375,157 z"/></g></svg>