<svg xmlns="http://www.w3.org/2000/svg" width="853.333" height="1706.667" preserveAspectRatio="xMidYMid meet" version="1.0" viewBox="0 0 640 1280"><metadata>Created by potrace 1.15, written by Peter Selinger 2001-2017</metadata><g fill="#000" stroke="none"><path d="M305 12791 c-51 -13 -90 -38 -129 -82 -78 -86 -118 -227 -136 -477 -33 -466 86 -1595 271 -2582 105 -558 178 -784 326 -1014 28 -44 59 -113 84 -188 l40 -119 -40 -118 c-80 -239 -111 -428 -111 -673 0 -335 69 -617 225 -915 41 -80 73 -157 90 -220 138 -515 264 -789 434 -945 107 -98 246 -154 519 -212 63 -13 115 -26 117 -28 3 -2 -18 -21 -45 -41 -118 -88 -279 -315 -434 -611 l-98 -186 -49 44 c-69 62 -142 88 -249 89 -53 0 -108 -7 -145 -17 -145 -43 -279 -143 -328 -248 -63 -136 -70 -422 -17 -687 65 -320 215 -617 424 -838 l66 -70 0 -69 c0 -38 3 -106 6 -151 l7 -82 66 -16 67 -16 18 -70 c25 -99 133 -308 242 -471 52 -77 94 -141 94 -142 0 -10 -183 -46 -279 -56 -186 -18 -269 -55 -369 -165 -58 -63 -104 -152 -123 -238 -20 -95 9 -302 91 -642 67 -278 87 -332 128 -341 15 -3 43 -10 62 -15 173 -41 655 -128 875 -155 184 -24 450 -24 605 -1 226 34 603 119 860 195 l95 28 -1 125 c0 68 -4 161 -9 207 l-8 82 53 0 52 0 -6 -37 c-4 -21 -9 -99 -12 -174 l-6 -136 71 -22 c118 -36 488 -128 626 -156 505 -101 763 -90 1558 71 147 30 270 54 272 54 17 0 56 130 114 375 83 354 105 532 76 631 -51 177 -184 315 -349 361 -28 8 -130 18 -226 23 -96 5 -193 13 -215 19 -37 10 -269 41 -306 41 -14 0 -11 12 17 63 54 103 113 261 145 391 16 66 33 132 37 146 6 21 23 29 122 60 l115 36 0 217 0 217 55 41 c119 90 148 134 217 334 67 196 77 262 78 535 0 217 -3 258 -23 358 -42 210 -130 430 -205 517 -121 139 -390 186 -582 100 l-53 -23 -58 87 c-182 268 -455 518 -693 637 l-94 47 154 77 c213 105 316 175 429 289 108 109 163 200 202 336 20 70 23 101 22 245 0 190 -16 282 -87 502 l-43 133 29 110 c50 198 61 283 61 510 0 224 -10 303 -60 500 -30 119 -98 297 -155 406 l-41 78 125 238 c237 451 360 745 408 978 20 94 15 286 -9 375 -59 220 -215 452 -387 574 l-62 45 -6 98 c-11 177 -61 318 -137 387 -48 43 -329 217 -449 278 -198 100 -365 130 -497 90 -38 -12 -89 -34 -114 -50 -178 -114 -403 -414 -586 -781 l-62 -124 -138 -114 c-137 -112 -140 -114 -180 -108 -145 20 -380 -3 -529 -53 -92 -30 -111 -30 -121 1 -14 48 -300 614 -404 802 -336 604 -614 1011 -855 1250 -132 132 -194 177 -305 222 -65 26 -174 38 -225 24z m3596 -12263 c32 -40 27 -44 -32 -28 -42 12 -49 28 -48 110 l0 55 25 -50 c13 -27 38 -67 55 -87z m-524 -73 c-3 -6 -31 -17 -63 -24 -33 -8 -66 -16 -74 -19 -8 -3 8 17 36 46 28 28 62 72 75 97 l24 45 3 -66 c2 -37 1 -72 -1 -79z m-2081 -62 c0 0 -24 3 -52 9 -51 10 -51 10 -71 69 l-20 58 72 -67 c40 -37 72 -68 71 -69z m4714 98 c-6 -12 -18 -21 -26 -21 -13 0 -11 5 7 24 27 28 36 27 19 -3z" transform="translate(0.000000,1280.000000) scale(0.100000,-0.100000)"/></g></svg>