<svg xmlns="http://www.w3.org/2000/svg" width="1085.333" height="1706.667" preserveAspectRatio="xMidYMid meet" version="1.0" viewBox="0 0 814 1280"><metadata>Created by potrace 1.15, written by Peter Selinger 2001-2017</metadata><g fill="#000" stroke="none"><path d="M5031 12780 c-95 -35 -199 -93 -284 -156 -89 -67 -551 -503 -561 -530 -6 -14 -17 -16 -76 -10 -201 18 -627 -57 -1020 -181 -418 -131 -735 -293 -1020 -520 -116 -92 -337 -310 -407 -401 -32 -41 -67 -85 -78 -99 l-20 -24 -95 87 c-153 140 -287 218 -492 285 -126 41 -191 48 -237 25 -41 -22 -141 -133 -204 -227 -95 -145 -218 -381 -328 -630 -85 -195 -144 -416 -186 -704 -23 -160 -24 -558 0 -680 59 -309 153 -610 387 -1249 33 -89 182 -393 219 -444 34 -49 127 -244 206 -432 189 -451 202 -472 454 -745 207 -223 261 -314 486 -805 200 -437 300 -671 330 -769 51 -168 92 -244 129 -239 41 6 42 56 6 274 -17 109 -40 242 -50 294 -11 52 -26 176 -35 275 -33 375 -41 403 -275 955 -173 406 -355 883 -461 1200 -31 96 -101 279 -154 405 -198 470 -305 737 -315 780 -6 27 -6 61 -1 92 15 75 301 703 321 703 3 0 4 -18 2 -40 -2 -22 -1 -48 3 -58 4 -9 9 -37 11 -62 10 -119 102 -346 289 -715 200 -395 291 -627 346 -880 21 -97 22 -101 74 -150 55 -54 210 -140 349 -195 102 -40 287 -88 363 -94 l58 -4 3 -60 c3 -65 -68 -366 -153 -647 -59 -193 -75 -289 -75 -439 0 -168 17 -262 91 -498 26 -85 44 -128 54 -128 21 0 25 14 15 50 -5 19 -9 35 -7 36 1 1 40 -6 87 -17 47 -10 106 -19 131 -19 44 0 47 -2 53 -31 3 -17 6 -36 6 -41 0 -10 -44 -8 -183 8 -54 6 -59 5 -55 -12 7 -41 249 -74 278 -39 14 17 -2 183 -42 430 -25 156 -26 302 -3 409 24 113 115 390 131 399 7 4 11 14 8 21 -3 8 9 54 26 102 74 210 86 330 46 449 -14 39 -24 71 -23 71 9 6 121 44 131 44 19 0 63 -74 155 -257 l80 -161 -50 -99 c-66 -129 -70 -173 -35 -427 32 -232 34 -349 7 -476 -11 -52 -25 -151 -31 -220 -7 -69 -23 -186 -37 -260 -13 -74 -35 -198 -49 -275 -32 -186 -54 -252 -121 -362 -72 -121 -101 -215 -118 -383 -21 -206 -24 -213 -180 -365 -120 -118 -139 -157 -139 -290 0 -92 15 -127 71 -165 46 -32 145 -39 240 -17 38 9 87 18 110 21 l42 6 11 -57 c19 -93 34 -113 80 -113 21 0 50 4 64 10 23 8 26 7 32 -18 19 -83 28 -107 49 -128 30 -30 57 -30 140 0 46 17 68 20 70 13 5 -14 33 -220 45 -337 44 -418 56 -853 26 -1004 -19 -98 -65 -199 -114 -249 -80 -84 -153 -124 -547 -302 -143 -64 -287 -131 -320 -147 -59 -30 -180 -110 -220 -145 -100 -88 -145 -271 -94 -383 40 -87 102 -128 240 -156 70 -14 119 -16 289 -11 290 8 569 53 1036 167 220 54 295 90 346 168 51 76 58 118 52 280 -5 117 -3 161 10 215 9 38 16 87 16 110 0 39 4 44 49 75 71 48 136 69 237 79 227 21 422 -40 566 -176 88 -82 128 -138 194 -268 61 -119 78 -173 128 -390 76 -330 97 -344 701 -442 451 -74 708 -120 900 -161 393 -83 545 -107 619 -96 34 5 52 15 75 41 37 42 47 85 44 191 -4 166 -53 282 -168 393 -114 111 -175 133 -565 206 -165 31 -260 58 -309 88 -40 24 -102 117 -124 184 -35 109 -41 175 -57 563 -6 129 -15 267 -20 305 -14 92 -58 268 -81 322 l-18 43 29 15 c28 15 90 120 90 155 0 29 11 29 58 -1 65 -41 167 -72 214 -64 90 16 119 98 101 289 -5 55 -10 70 -25 74 -10 2 -18 5 -18 6 0 1 5 17 10 36 16 54 119 781 130 915 16 194 12 333 -20 635 -16 157 -36 368 -45 470 -19 228 -29 306 -61 490 -31 176 -130 567 -189 745 -52 160 -191 499 -253 619 -70 137 -208 320 -367 486 -76 80 -123 144 -144 198 -13 31 -12 204 1 217 3 3 31 -1 64 -10 131 -34 240 -1 260 79 16 64 -53 187 -229 412 -48 62 -87 114 -87 117 0 2 17 7 38 10 20 3 51 8 67 12 28 6 34 2 83 -59 124 -156 241 -362 242 -428 0 -24 -4 -28 -27 -28 -43 0 -73 -11 -73 -26 0 -37 102 -43 141 -8 50 45 1 183 -141 394 -32 47 -74 105 -94 129 -20 24 -33 47 -29 50 4 4 26 13 48 20 60 20 88 44 121 103 27 50 29 59 29 168 0 128 -11 174 -56 224 -15 18 -33 44 -38 59 -11 27 -2 40 43 62 18 9 21 21 24 90 2 44 -2 112 -8 150 -10 58 -121 513 -138 565 -2 8 29 -39 70 -105 238 -384 361 -542 679 -870 107 -110 273 -285 370 -390 97 -104 223 -235 280 -291 116 -112 165 -138 282 -150 82 -8 102 7 93 74 -9 69 -61 154 -191 317 -116 145 -183 239 -240 338 -22 38 -24 47 -11 47 9 0 16 6 16 14 0 8 -60 129 -134 269 -331 626 -470 931 -540 1187 -14 52 -46 167 -70 255 -24 88 -66 237 -94 330 -70 236 -131 450 -187 650 -26 94 -58 191 -71 216 -13 26 -63 100 -111 165 -140 187 -224 309 -312 451 -116 186 -133 201 -374 321 -443 221 -518 251 -647 258 -69 4 -95 1 -139 -16z m-721 -1003 c0 -14 -20 -37 -32 -37 -4 0 -8 26 -8 58 l0 57 20 -33 c11 -18 20 -38 20 -45z m50 29 c0 -5 -7 -1 -15 10 -8 10 -14 24 -14 29 0 6 6 1 14 -9 8 -11 15 -24 15 -30z m215 -133 c-8 -34 -33 -63 -53 -63 -10 0 -7 9 12 34 14 19 26 39 26 45 0 6 5 11 11 11 7 0 9 -10 4 -27z m-1635 -386 c0 -4 -11 -7 -25 -7 -25 0 -31 8 -49 66 -5 17 2 14 34 -16 22 -20 40 -40 40 -43z m-96 -26 c-7 -8 -14 6 -19 40 l-5 34 14 -35 c7 -19 12 -37 10 -39z m2673 49 c22 0 73 -32 73 -46 0 -7 7 -15 16 -18 10 -4 14 -12 10 -22 -6 -16 23 -75 137 -284 l41 -74 -206 189 c-168 155 -204 193 -195 204 20 25 102 72 105 61 2 -5 10 -10 19 -10z m-2650 -284 c3 -2 -9 -7 -26 -11 -29 -6 -71 8 -71 24 0 8 88 -4 97 -13z m1353 -6 l35 -19 -30 -1 c-20 0 -35 7 -43 20 -15 25 -7 25 38 0z m-1159 -41 c-5 -13 -10 -19 -10 -12 -1 15 10 45 15 40 3 -2 0 -15 -5 -28z m1086 -624 c-11 -7 -26 -11 -35 -8 -13 6 -13 8 4 14 10 4 26 8 34 8 12 0 11 -3 -3 -14z m-860 -541 c-3 -3 -12 -4 -19 -1 -8 3 -5 6 6 6 11 1 17 -2 13 -5z m2593 -107 c0 -13 -7 -44 -16 -70 -13 -38 -21 -48 -48 -55 -32 -9 -118 -1 -191 17 -22 6 -49 12 -60 13 -14 2 7 18 65 47 101 53 151 69 208 70 37 1 42 -1 42 -22z m-4046 -597 c43 -74 54 -104 23 -66 -29 35 -63 31 -51 -6 22 -73 126 -167 208 -189 35 -10 38 -13 21 -20 -38 -15 -115 -10 -155 11 -95 48 -152 200 -120 316 15 53 15 53 74 -46z m4274 -63 c3 -39 -22 -142 -40 -164 -23 -28 -46 -14 -52 31 -8 51 -35 90 -78 112 -21 11 -27 19 -20 26 16 16 99 35 146 34 40 -1 41 -2 44 -39z m-2023 -37 c81 -11 172 -20 201 -20 30 0 54 -4 54 -9 0 -6 -9 -26 -21 -45 -30 -51 -134 -101 -209 -101 -81 1 -172 53 -241 138 l-30 37 23 9 c34 14 60 13 223 -9z m-1451 -782 c31 -34 56 -65 56 -69 0 -4 -14 -4 -31 1 -59 17 -127 -51 -111 -112 7 -28 50 -52 90 -51 41 1 82 39 82 76 1 22 1 22 15 3 29 -38 18 -52 -76 -105 -51 -28 -93 -51 -95 -51 -2 0 -4 13 -4 28 0 31 -21 55 -58 67 -32 10 -40 -20 -11 -43 24 -21 21 -48 -7 -59 -28 -10 -44 23 -37 77 4 32 1 50 -7 55 -21 13 -41 -20 -47 -76 -5 -49 -3 -58 22 -87 15 -18 26 -34 24 -36 -7 -6 -48 -26 -53 -26 -10 0 -86 211 -86 240 0 27 11 43 64 94 61 58 177 136 202 136 7 0 37 -28 68 -62z m3534 -155 c126 -164 199 -275 213 -327 15 -54 -9 -78 -84 -84 -97 -8 -185 38 -261 137 -52 67 -116 180 -116 204 0 9 15 36 33 59 17 24 45 74 61 112 25 60 31 67 40 51 6 -10 57 -78 114 -152z m-5788 93 c0 -2 -9 -6 -20 -9 -11 -3 -20 -1 -20 4 0 5 9 9 20 9 11 0 20 -2 20 -4z m2274 -52 c22 -9 20 -51 -3 -64 -25 -13 -27 -13 -45 5 -12 13 -13 21 -4 40 11 25 24 30 52 19z m383 -56 c6 -7 20 -42 33 -78 12 -36 47 -130 77 -210 59 -152 123 -351 123 -380 0 -12 -22 -26 -77 -48 -43 -16 -87 -32 -97 -34 -28 -5 -31 19 -4 27 13 4 35 18 50 32 24 22 26 32 26 95 0 127 -108 428 -179 499 -26 26 -84 25 -156 -3 -32 -12 -66 -21 -75 -19 -63 9 -335 -235 -339 -305 -3 -33 31 -103 107 -226 56 -88 75 -106 93 -85 7 9 -13 53 -70 152 -102 180 -104 201 -14 118 30 -27 45 -48 38 -50 -18 -6 -16 -42 2 -49 8 -4 57 15 107 42 51 26 131 67 178 91 47 24 86 48 88 53 2 5 -6 14 -17 20 -17 8 -35 5 -93 -20 -40 -17 -97 -44 -125 -61 -29 -16 -59 -29 -66 -29 -8 0 -34 14 -57 31 l-44 32 137 69 c131 65 160 90 123 104 -14 5 -145 -56 -219 -103 -21 -13 -41 -23 -43 -20 -6 5 97 86 169 131 l59 38 25 -24 c14 -12 41 -44 60 -70 35 -48 63 -62 63 -32 0 17 -44 98 -68 127 -19 22 -10 32 42 46 48 13 66 0 101 -69 23 -47 75 -184 75 -200 0 -6 -28 -24 -62 -41 -34 -17 -78 -42 -97 -54 -20 -13 -70 -35 -111 -50 -41 -14 -100 -38 -130 -53 -57 -28 -77 -59 -43 -68 18 -5 131 -200 121 -209 -2 -2 -14 -2 -27 2 -15 4 -19 8 -10 13 6 5 9 15 6 25 -6 13 -15 15 -52 9 -55 -8 -61 -3 -126 93 -46 68 -199 373 -199 397 0 14 90 76 110 76 7 0 45 22 84 49 98 67 359 202 420 217 67 16 72 16 83 2z m73 -506 c11 -28 11 -35 -1 -42 -11 -7 -11 -15 -1 -43 17 -48 16 -55 -20 -77 -42 -26 -45 -25 -62 9 -14 25 -14 30 -1 41 19 16 10 30 -20 30 -13 0 -27 5 -30 10 -11 18 -45 11 -45 -9 0 -15 -15 -25 -55 -40 -117 -44 -158 -76 -125 -96 6 -4 54 12 106 35 75 32 99 38 110 29 8 -6 14 -15 14 -19 0 -4 -48 -22 -107 -40 -60 -18 -113 -35 -119 -37 -6 -2 -23 19 -38 47 -25 47 -26 51 -9 57 42 15 239 106 252 117 27 22 126 72 132 67 3 -3 12 -21 19 -39z m-77 -273 l15 -37 -76 -10 c-185 -26 -179 -26 -192 -2 -6 12 -10 23 -8 24 2 2 46 18 98 36 52 18 102 36 110 41 19 10 34 -5 53 -52z m58 -121 c18 -35 59 -143 59 -154 0 -2 -6 -1 -12 1 -29 11 -302 54 -310 49 -4 -3 -8 0 -8 5 0 7 39 9 120 4 93 -5 123 -3 136 7 28 24 -10 40 -97 40 -116 0 -166 9 -172 31 -4 14 2 19 27 23 17 3 69 11 116 19 123 21 117 22 141 -25z m-82 -178 c49 -7 101 -10 115 -8 23 5 26 2 26 -23 0 -16 -3 -29 -7 -29 -5 0 -62 9 -128 20 -138 23 -171 24 -181 9 -17 -28 51 -46 247 -65 65 -6 65 -6 61 -35 -2 -16 -9 -29 -16 -29 -6 0 -65 14 -131 31 -149 38 -148 38 -153 17 -5 -25 41 -44 164 -69 60 -12 110 -23 112 -24 2 -2 -2 -22 -9 -45 -11 -38 -15 -41 -38 -36 -14 3 -82 19 -151 35 -98 24 -127 28 -137 18 -24 -24 6 -38 150 -69 161 -35 151 -28 126 -95 l-8 -21 -68 20 c-37 11 -101 33 -141 49 -74 30 -92 30 -92 3 0 -18 74 -52 193 -89 48 -15 87 -30 87 -34 0 -3 -16 -54 -36 -113 l-35 -107 -67 25 c-37 14 -97 39 -134 56 -66 30 -88 31 -88 2 0 -18 116 -74 205 -99 33 -10 63 -19 66 -21 4 -2 -2 -36 -12 -76 -11 -39 -19 -82 -19 -95 0 -19 -3 -21 -17 -14 -10 5 -52 17 -93 26 -41 9 -98 25 -126 35 -54 20 -64 18 -64 -11 0 -28 160 -79 251 -79 35 0 39 -3 39 -25 0 -19 -5 -25 -23 -25 -35 0 -136 19 -195 38 -39 12 -55 13 -64 4 -30 -30 63 -68 195 -79 50 -4 77 -10 77 -18 0 -7 3 -34 7 -60 l6 -48 -49 7 c-27 4 -91 14 -143 22 -68 12 -96 13 -104 5 -22 -22 19 -42 114 -57 52 -8 113 -14 136 -14 23 0 44 -3 46 -7 3 -5 8 -29 12 -55 6 -42 5 -46 -11 -43 -11 2 -74 14 -142 26 -176 31 -167 17 -167 241 0 207 7 263 33 253 45 -17 173 -45 217 -47 39 -2 50 0 50 12 0 11 -31 23 -108 43 -59 15 -120 33 -136 40 l-28 12 35 108 c27 89 37 108 50 104 192 -57 253 -70 265 -58 19 19 -10 35 -136 71 -61 18 -116 36 -120 40 -5 4 17 108 47 230 31 122 56 230 56 240 0 17 4 17 50 5 28 -7 90 -19 139 -25z m-278 -1314 c41 -8 102 -17 137 -21 34 -4 62 -10 62 -13 1 -4 7 -51 14 -104 l12 -98 -25 0 c-34 0 -243 48 -252 57 -4 5 -10 20 -14 34 l-7 26 54 -13 c72 -19 201 -33 212 -23 16 14 -3 39 -29 39 -14 0 -69 10 -123 21 -53 12 -103 22 -111 23 -16 3 -26 21 -35 64 -5 29 -3 33 13 27 10 -3 51 -12 92 -19z m-522 -1178 c0 -18 -3 -26 -6 -18 -3 8 -10 23 -15 33 -6 12 -5 17 7 17 10 0 15 -10 14 -32z" transform="translate(0.000000,1280.000000) scale(0.100000,-0.100000)"/><path d="M2736 7707 c-88 -51 -105 -69 -73 -75 14 -3 167 67 194 90 16 13 5 38 -16 38 -9 -1 -56 -24 -105 -53z" transform="translate(0.000000,1280.000000) scale(0.100000,-0.100000)"/></g></svg>