<svg xmlns="http://www.w3.org/2000/svg" width="1242.667" height="1706.667" preserveAspectRatio="xMidYMid meet" version="1.0" viewBox="0 0 932 1280"><metadata>Created by potrace 1.15, written by Peter Selinger 2001-2017</metadata><g fill="#000" stroke="none"><path d="M5175 12794 c-401 -61 -784 -329 -1033 -725 -53 -84 -141 -271 -175 -369 -181 -535 -123 -1193 162 -1839 l42 -94 -28 -30 c-15 -16 -98 -90 -183 -165 -364 -318 -393 -356 -591 -805 -164 -371 -259 -508 -414 -598 -63 -37 -162 -68 -246 -77 l-64 -7 1 -42 c1 -54 42 -136 99 -198 43 -46 45 -50 28 -63 -12 -9 -33 -12 -66 -7 -36 4 -49 2 -53 -9 -11 -28 167 -351 304 -551 208 -305 464 -577 709 -755 34 -25 63 -47 63 -50 0 -3 -26 -18 -57 -34 -173 -84 -339 -227 -406 -347 -35 -62 -42 -69 -129 -117 -222 -122 -443 -214 -626 -259 -92 -23 -129 -26 -262 -27 -142 0 -162 2 -235 27 -156 52 -288 155 -345 271 -55 111 -61 238 -19 391 22 80 26 228 7 272 -22 51 -49 83 -88 103 -47 24 -78 25 -128 5 -72 -31 -107 -78 -173 -234 -34 -80 -62 -147 -63 -149 -2 -1 -29 7 -62 19 -32 11 -97 23 -143 26 -75 5 -97 12 -200 61 -64 30 -156 68 -206 85 -79 27 -104 31 -205 31 -109 1 -118 -1 -167 -28 -81 -44 -88 -56 -88 -141 0 -64 3 -77 24 -99 36 -39 103 -56 280 -70 89 -8 165 -16 168 -20 3 -3 -1 -22 -9 -43 -17 -42 -8 -37 -220 -97 -193 -54 -294 -109 -346 -189 -22 -35 -27 -54 -27 -107 0 -40 7 -82 18 -110 17 -39 17 -52 7 -102 -17 -79 -9 -157 20 -198 13 -19 46 -43 79 -58 51 -24 67 -26 181 -26 69 0 157 5 197 13 62 11 74 11 95 -3 92 -59 353 -134 503 -143 l100 -6 45 -46 c25 -26 93 -99 152 -163 59 -64 138 -139 175 -167 77 -58 212 -130 291 -156 59 -19 60 -14 -11 -93 -21 -24 -37 -48 -34 -55 6 -19 65 -44 146 -63 56 -13 105 -15 207 -12 74 3 134 4 134 3 0 0 -23 -18 -50 -39 -59 -45 -63 -69 -18 -92 60 -31 280 -29 363 3 9 3 22 -11 34 -35 19 -38 24 -40 84 -51 35 -6 84 -11 109 -11 63 0 201 25 272 50 33 11 60 19 61 18 2 -2 -8 -46 -21 -98 -62 -241 -53 -516 21 -693 8 -20 14 -37 12 -37 -3 0 -35 13 -73 28 -150 62 -225 77 -394 76 -142 0 -161 -2 -222 -26 -102 -39 -174 -86 -243 -160 -198 -214 -247 -549 -133 -912 29 -92 111 -253 173 -341 69 -97 224 -256 320 -327 154 -116 362 -223 531 -274 106 -32 88 -37 -116 -30 -193 6 -295 15 -604 56 -535 69 -745 67 -934 -12 -136 -56 -246 -192 -282 -346 -28 -119 34 -210 167 -244 29 -8 66 -28 93 -51 53 -46 125 -84 195 -104 50 -14 92 -16 955 -43 195 -6 400 -13 456 -16 l101 -6 22 -48 c12 -27 38 -62 58 -77 19 -15 66 -59 103 -98 112 -115 207 -162 386 -190 79 -13 110 -24 163 -55 120 -71 260 -118 451 -152 49 -8 158 -13 315 -12 227 0 295 5 580 44 83 11 357 58 580 98 138 25 195 30 410 36 370 9 579 39 751 105 258 100 319 273 160 458 -40 46 -149 122 -220 154 l-47 20 21 27 c12 15 40 52 63 83 l42 56 40 -17 c165 -70 244 -85 440 -84 155 1 178 3 258 27 255 78 424 234 502 462 39 114 59 330 32 341 -8 3 -53 -4 -101 -15 l-88 -19 29 31 c144 155 213 339 213 567 0 441 -286 882 -710 1095 -74 37 -162 67 -171 58 -4 -5 -78 -138 -164 -298 -185 -343 -277 -505 -285 -505 -3 0 -32 48 -64 105 -138 245 -362 491 -580 637 l-38 26 43 23 c38 20 60 23 164 24 157 2 213 22 300 109 34 34 68 72 77 86 15 25 15 24 39 -48 25 -78 35 -85 87 -58 76 40 149 159 159 261 3 30 9 55 13 55 17 0 33 -92 25 -148 -11 -87 -11 -125 1 -129 18 -6 129 103 173 171 147 225 168 513 55 744 -49 100 -250 313 -567 600 -352 320 -476 466 -611 724 -65 123 -65 125 -14 138 92 25 359 115 473 160 243 97 585 262 593 286 1 7 -33 37 -78 69 -157 111 -183 152 -112 180 42 17 233 211 225 230 -2 7 -35 15 -73 18 -169 14 -244 100 -227 261 3 28 28 143 56 256 70 286 88 377 102 517 28 272 -32 559 -188 896 -22 46 -33 81 -27 86 5 5 54 23 109 41 615 200 1178 489 1550 795 134 110 325 310 405 423 263 373 319 745 158 1054 -43 84 -139 195 -216 252 -173 126 -437 192 -671 166 -58 -7 -135 -19 -171 -27 -608 -136 -1201 -651 -1693 -1469 l-84 -139 -89 3 c-150 6 -375 -36 -475 -89 -13 -7 -28 10 -77 84 -122 185 -258 321 -369 369 -29 13 -53 26 -53 30 0 4 20 39 44 76 252 394 459 852 530 1177 40 179 51 318 36 443 -37 312 -188 505 -453 579 -52 14 -256 25 -312 17z" transform="translate(0.000000,1280.000000) scale(0.100000,-0.100000)"/></g></svg>