<?xml version="1.0" encoding="utf-8"?>
<!-- Generator: Adobe Illustrator 12.0.1, SVG Export Plug-In . SVG Version: 6.00 Build 51448)  -->
<!DOCTYPE svg PUBLIC "-//W3C//DTD SVG 1.1//EN" "http://www.w3.org/Graphics/SVG/1.1/DTD/svg11.dtd" [
<!ENTITY ns_svg "http://www.w3.org/2000/svg">
<!ENTITY ns_xlink "http://www.w3.org/1999/xlink">
]>
<svg xmlns="http://www.w3.org/2000/svg" xmlns:xlink="http://www.w3.org/1999/xlink" xmlns:svg="http://www.w3.org/2000/svg" xmlns:dc="http://purl.org/dc/elements/1.1/" xmlns:cc="http://web.resource.org/cc/" xmlns:rdf="http://www.w3.org/1999/02/22-rdf-syntax-ns#" version="1.1" id="Layer_1" width="313.666" height="164.519" viewBox="0 0 313.666 164.519" overflow="visible" enable-background="new 0 0 313.666 164.519" xml:space="preserve">
<path fill-rule="evenodd" clip-rule="evenodd" fill="#439539" d="M29.649,9.683c-2.389-0.468-4.797,2.57-6.137,5.697  c2.075-2.255,3.596-1.051,4.915-0.675c-2.122,2.795-4,5.877-7.746,5.568c2.384-6.014,2.963-12.977,0.394-17.78  c-1.296,2.591-1.854,6.054-5.204,7.395c3.575,2.455,0.986,7.637,1.208,11.437C11.967,21.17,6.428,16.391,9.058,10.67  c-3.922,8.312-2.715,19.745,4.363,22.224c-3.86,4.265-2.204,10.343,0.209,13.781c-0.96,1.808-1.83,2.546-3.774,3.195  c3.376,1.628,6.612,4.866,11.326,3.366c-1.005,2.345-12.389,9.499-15.16,10.35c3.216,0.267,14.492-2.308,16.903-5.349  c-1.583,2.84,1.431,2.28,2.86,4.56c1.877-3.088,3.978-2.374,5.677-3.311c-0.406,4.826-2.12,9.27-5.447,13.582  c2.834-4.894,6.922-5.367,10.474-5.879c-0.893,4.245-3.146,8.646-7.077,10.479c5.359,0.445,11.123-3.934,13.509-9.944  c12.688,3.209,28.763-1.932,39.894,7.084c1.024,0.625,1.761-4.98,1.023-5.852C72.823,55.357,69.273,68.83,52.651,54.498  c-0.492-0.584,1.563-5.81,1-8.825c-1.048-3.596-3.799-6.249-7.594-6.027c-2.191,0.361-5.448,0.631-7.84,0.159  c2.923-5.961,9.848-4.849,12.28-11.396c-4.759,2.039-7.864-2.808-12.329-1.018c1.63-3.377,4.557-2.863,6.786-3.755  c-3.817-2.746-9.295-5.091-14.56-0.129C33.228,18.615,32.064,13.119,29.649,9.683"/>
<path fill="none" stroke="#000000" stroke-width="2.292" stroke-miterlimit="14.3" d="M29.649,9.683  c-2.389-0.468-4.797,2.57-6.137,5.697c2.075-2.255,3.596-1.051,4.915-0.675c-2.122,2.795-4,5.877-7.746,5.568  c2.384-6.014,2.963-12.977,0.394-17.78c-1.296,2.591-1.854,6.054-5.204,7.395c3.575,2.455,0.986,7.637,1.208,11.437  C11.967,21.17,6.428,16.391,9.058,10.67c-3.922,8.312-2.715,19.745,4.363,22.224c-3.86,4.265-2.204,10.343,0.209,13.781  c-0.96,1.808-1.83,2.546-3.774,3.195c3.376,1.628,6.612,4.866,11.326,3.366c-1.005,2.345-12.389,9.499-15.16,10.35  c3.216,0.267,14.492-2.308,16.903-5.349c-1.583,2.84,1.431,2.28,2.86,4.56c1.877-3.088,3.978-2.374,5.677-3.311  c-0.406,4.826-2.12,9.27-5.447,13.582c2.834-4.894,6.922-5.367,10.474-5.879c-0.893,4.245-3.146,8.646-7.077,10.479  c5.359,0.445,11.123-3.934,13.509-9.944c12.688,3.209,28.763-1.932,39.894,7.084c1.024,0.625,1.761-4.98,1.023-5.852  C72.823,55.357,69.273,68.83,52.651,54.498c-0.492-0.584,1.563-5.81,1-8.825c-1.048-3.596-3.799-6.249-7.594-6.027  c-2.191,0.361-5.448,0.631-7.84,0.159c2.923-5.961,9.848-4.849,12.28-11.396c-4.759,2.039-7.864-2.808-12.329-1.018  c1.63-3.377,4.557-2.863,6.786-3.755c-3.817-2.746-9.295-5.091-14.56-0.129C33.228,18.615,32.064,13.119,29.649,9.683z"/>
<path fill-rule="evenodd" clip-rule="evenodd" fill="#FFC222" d="M85.989,101.047c0,0,3.202,3.67,8.536,4.673  c7.828,1.472,17.269,0.936,17.269,0.936s2.546,5.166,10.787,7.338c8.248,2.168,17.802,0.484,17.802,0.484s8.781,1.722,19.654,8.074  c10.871,6.353,20.142,2.163,20.142,2.163s1.722,3.118,14.11,9.102c12.39,5.982,14.152,2.658,28.387,4.339  c14.232,1.672,19.36,5.568,30.108,7.449c10.747,1.886,25.801,5.607,25.801,5.607s4.925,0.409,12.313,6.967  c7.381,6.564,18.453,4.506,18.453,4.506s-10.869-6.352-15.467-10.702c-4.594-4.342-16.901-11.309-24.984-15.448  c-8.079-4.14-18.215-7.46-30.233-11.924c-12.018-4.468-6.934-6.029-23.632-13.855c-16.695-7.822-13.662-8.565-28.347-10.776  c-14.686-2.208-6.444-11.933-23.917-16.356c-17.479-4.423-11.037-4.382-26.016-9.093c-14.97-4.715-10.638-10.104-26.665-13.116  c-14.149-2.66-21.318,0.468-27.722,11.581C73.104,89.075,85.989,101.047,85.989,101.047"/>
<path fill="none" stroke="#000000" stroke-width="3.056" stroke-miterlimit="11.5" d="M221.771,126.738c0,0,1.874-4.211,4.215-6.087  c2.347-1.868,2.812-2.339,2.812-2.339 M147.11,105.122c0,0,0.882-11.047,6.765-15.793c5.879-4.745,10.882-5.568,10.882-5.568   M125.391,86.008c0,0,2.797-6.289,6.291-9.081c3.495-2.791,4.194-3.49,4.194-3.49 M181.153,124.8c0,0-1.206-4.014-0.709-6.671  c0.493-2.66,0.539-3.256,0.539-3.256 M111.704,107.641c0,0-1.935-6.604-1.076-10.991c0.862-4.389,0.942-5.376,0.942-5.376   M85.989,101.047c0,0,3.202,3.67,8.536,4.673c7.828,1.472,17.269,0.936,17.269,0.936s2.546,5.166,10.787,7.338  c8.248,2.168,17.802,0.484,17.802,0.484s8.781,1.722,19.654,8.074c10.871,6.353,20.142,2.163,20.142,2.163s1.722,3.118,14.11,9.102  c12.39,5.982,14.152,2.658,28.387,4.339c14.232,1.672,19.36,5.568,30.108,7.449c10.747,1.886,25.801,5.607,25.801,5.607  s4.925,0.409,12.313,6.967c7.381,6.564,18.453,4.506,18.453,4.506s-10.869-6.352-15.467-10.702  c-4.594-4.342-16.901-11.309-24.984-15.448c-8.079-4.14-18.215-7.46-30.233-11.924c-12.018-4.468-6.934-6.029-23.632-13.855  c-16.695-7.822-13.662-8.565-28.347-10.776c-14.686-2.208-6.444-11.933-23.917-16.356c-17.479-4.423-11.037-4.382-26.016-9.093  c-14.97-4.715-10.638-10.104-26.665-13.116c-14.149-2.66-21.318,0.468-27.722,11.581C73.104,89.075,85.989,101.047,85.989,101.047z"/>
<metadata><rdf:RDF><cc:Work><dc:format>image/svg+xml</dc:format><dc:type rdf:resource="http://purl.org/dc/dcmitype/StillImage"/><cc:license rdf:resource="http://creativecommons.org/licenses/publicdomain/"/><dc:publisher><cc:Agent rdf:about="http://openclipart.org/"><dc:title>Open Clip Art Library</dc:title></cc:Agent></dc:publisher><dc:title>carrot</dc:title><dc:date>2006-10-14T08:13:04</dc:date><dc:description>a very simple drawing of a carrot from a NASA activity book</dc:description><dc:source>http://openclipart.org/detail/606/carrot-by-johnny_automatic</dc:source><dc:creator><cc:Agent><dc:title>johnny_automatic</dc:title></cc:Agent></dc:creator><dc:subject><rdf:Bag><rdf:li>carrot</rdf:li><rdf:li>carrot</rdf:li><rdf:li>clip art</rdf:li><rdf:li>clipart</rdf:li><rdf:li>food</rdf:li><rdf:li>food</rdf:li><rdf:li>image</rdf:li><rdf:li>media</rdf:li><rdf:li>png</rdf:li><rdf:li>public domain</rdf:li><rdf:li>svg</rdf:li><rdf:li>vegetable</rdf:li><rdf:li>vegetable</rdf:li></rdf:Bag></dc:subject></cc:Work><cc:License rdf:about="http://creativecommons.org/licenses/publicdomain/"><cc:permits rdf:resource="http://creativecommons.org/ns#Reproduction"/><cc:permits rdf:resource="http://creativecommons.org/ns#Distribution"/><cc:permits rdf:resource="http://creativecommons.org/ns#DerivativeWorks"/></cc:License></rdf:RDF></metadata></svg>
