<?xml version="1.0" standalone="no"?>
<!DOCTYPE svg PUBLIC "-//W3C//DTD SVG 20010904//EN"
  "http://www.w3.org/TR/2001/REC-SVG-20010904/DTD/svg10.dtd">
<svg height="1280.000000pt" preserveAspectRatio="xMidYMid meet"
     version="1.0" viewBox="0 0 970.000000 1280.000000" width="970.000000pt"
     xmlns="http://www.w3.org/2000/svg">
  <metadata>
    Created by potrace 1.15, written by Peter Selinger 2001-2017
  </metadata>
  <g fill="#000000"
     stroke="none" transform="translate(0.000000,1280.000000) scale(0.100000,-0.100000)">
    <path d="M3595 12794 c-16 -2 -66 -9 -110 -14 -237 -31 -625 -142 -910 -262
-523 -219 -984 -559 -1223 -901 -24 -34 -86 -147 -139 -252 -129 -257 -205
-392 -271 -483 -486 -671 -853 -1315 -902 -1582 -17 -90 -15 -348 4 -510 30
-258 31 -380 2 -665 -48 -475 -56 -693 -36 -894 27 -263 124 -482 240 -541 71
-36 180 -60 275 -60 242 0 444 123 589 359 108 175 289 530 411 806 l26 60 21
-35 c128 -209 272 -338 456 -409 180 -69 491 -114 782 -114 319 0 535 41 783
147 34 15 38 15 43 1 5 -11 -41 -64 -148 -173 -242 -247 -380 -421 -449 -567
-121 -257 -194 -451 -220 -585 -17 -91 -15 -280 4 -366 21 -93 60 -195 99
-258 112 -183 331 -382 652 -594 89 -58 163 -107 165 -109 7 -5 -19 -48 -116
-195 -97 -149 -195 -253 -368 -391 -66 -52 -137 -115 -157 -140 -55 -67 -126
-179 -163 -262 l-34 -74 -98 47 c-118 57 -169 60 -308 18 -49 -15 -146 -38
-215 -52 -69 -13 -144 -34 -168 -46 -128 -61 -248 -267 -258 -442 -2 -38 -9
-86 -14 -105 -5 -20 -10 -72 -10 -116 0 -94 18 -138 70 -173 19 -13 48 -46 64
-74 73 -126 224 -248 376 -303 107 -39 260 -46 357 -17 73 23 149 66 200 114
l31 30 20 -38 c40 -80 92 -223 92 -253 0 -46 -24 -85 -100 -166 -70 -74 -103
-126 -113 -182 -25 -132 138 -423 593 -1058 229 -321 322 -436 461 -571 179
-173 360 -289 509 -326 79 -19 426 -16 548 5 80 13 102 14 156 3 108 -23 186
3 353 116 23 15 53 28 66 28 66 0 140 94 156 199 24 148 -43 354 -141 436 -65
55 -106 68 -376 120 -164 31 -219 58 -337 162 -155 137 -295 332 -311 434 l-6
36 103 38 c379 138 638 289 801 464 114 123 218 314 218 401 0 24 5 31 28 35
45 9 116 29 337 93 418 121 809 209 1037 233 233 24 523 -36 795 -166 153 -73
190 -100 325 -236 278 -281 482 -374 670 -306 135 49 255 157 327 296 57 110
70 172 81 381 15 284 42 486 96 730 49 217 104 368 259 709 52 115 102 235
110 267 29 110 14 249 -36 344 -16 30 -41 81 -55 114 -56 123 -147 176 -305
176 -50 0 -109 -5 -132 -11 -33 -8 -55 -7 -102 6 -133 37 -314 30 -421 -15
l-42 -18 -17 92 c-21 116 -63 240 -106 312 -72 119 -227 220 -378 246 -72 12
-75 12 -165 -19 -96 -34 -232 -73 -253 -73 -14 0 -99 117 -150 207 -36 66 -73
210 -73 291 l0 43 113 -8 c61 -4 184 -8 272 -8 244 1 324 31 478 179 103 98
150 210 182 436 20 142 19 212 -5 305 -67 261 -247 458 -572 625 l-130 67 103
114 c227 252 501 538 624 652 72 66 244 230 383 364 329 316 465 434 525 456
7 2 9 8 5 12 -19 20 -478 -120 -662 -201 -173 -77 -185 -85 -601 -377 -183
-128 -343 -276 -412 -380 -56 -85 -87 -160 -153 -370 -28 -88 -52 -163 -54
-165 -2 -2 -58 18 -125 44 -90 35 -121 51 -121 64 0 35 30 191 59 301 87 336
240 683 434 986 l46 72 55 -20 c106 -37 313 -51 401 -28 22 6 121 15 220 19
190 9 261 22 349 66 121 60 184 165 225 374 6 30 22 157 36 282 27 246 47 327
97 403 41 63 224 245 351 350 109 90 115 105 75 185 -44 85 -109 106 -264 83
-53 -8 -98 -12 -100 -10 -2 2 1 18 7 36 10 28 8 42 -15 100 -54 138 -199 331
-324 431 l-64 50 -126 -6 c-218 -11 -334 -42 -414 -113 -42 -37 -49 -38 -74
-10 -64 72 -295 189 -435 221 -154 35 -219 13 -247 -81 -11 -36 -17 -41 -82
-67 -39 -15 -68 -29 -66 -31 2 -2 32 7 67 21 34 14 63 25 64 23 1 -1 -2 -65
-6 -142 -5 -109 -12 -159 -33 -225 -28 -91 -31 -96 -61 -103 -18 -4 -18 -5 3
-6 12 0 22 -2 22 -3 0 -7 -42 -111 -69 -170 -21 -47 -36 -68 -48 -68 -13 0
-14 -3 -5 -8 9 -7 1 -32 -34 -108 -66 -142 -94 -228 -94 -293 0 -60 26 -178
59 -275 12 -34 23 -96 26 -148 10 -180 54 -310 148 -434 57 -75 166 -179 234
-223 l50 -32 -91 -138 c-102 -153 -211 -358 -279 -526 -83 -201 -156 -476
-173 -646 -4 -38 -11 -69 -15 -69 -10 0 -371 131 -378 137 -3 2 5 16 16 31 56
75 68 113 68 212 l0 95 -69 145 c-38 80 -71 164 -74 187 -2 23 3 81 13 129 22
113 17 263 -11 319 -34 69 -60 80 -189 80 -75 0 -111 3 -107 10 3 5 20 28 37
51 45 59 215 344 267 449 104 206 155 398 144 532 -8 96 -33 205 -62 272 -13
29 -24 57 -24 62 0 4 27 18 60 30 33 12 59 24 56 26 -2 3 -33 -7 -67 -21 -59
-24 -64 -24 -73 -8 -5 9 -41 50 -79 89 l-70 73 65 29 c36 16 93 39 127 51 34
13 59 25 57 27 -5 5 -169 -59 -227 -88 -35 -17 -36 -17 -55 1 -10 10 -54 43
-97 74 l-79 56 114 73 c62 41 139 89 171 107 31 17 57 34 57 37 0 8 -106 -54
-228 -133 -62 -41 -117 -74 -122 -74 -5 0 -38 16 -74 36 -36 19 -101 50 -146
68 -71 29 -85 39 -110 80 -16 25 -32 57 -36 70 -13 53 -325 426 -516 616 -458
459 -940 730 -1458 821 -110 19 -439 34 -515 23z"/>
    <path d="M7295 11536 c-107 -47 -205 -96 -165 -82 23 8 294 127 299 132 13 12
-26 -2 -134 -50z"/>
    <path d="M6960 11379 c-74 -39 -139 -76 -145 -81 -8 -9 280 138 294 149 2 1 0
3 -5 3 -5 0 -70 -32 -144 -71z"/>
    <path d="M7375 11150 c-27 -7 -27 -8 -5 -8 14 0 39 4 55 8 27 7 27 8 5 8 -14
0 -38 -4 -55 -8z"/>
    <path d="M7308 11133 c6 -2 18 -2 25 0 6 3 1 5 -13 5 -14 0 -19 -2 -12 -5z"/>
    <path d="M7210 11115 c-25 -7 -38 -13 -30 -14 8 0 38 6 65 13 28 8 41 14 30
14 -11 0 -40 -6 -65 -13z"/>
    <path d="M7062 11078 c-40 -11 -71 -22 -69 -25 4 -4 158 36 166 43 9 8 -27 2
-97 -18z"/>
    <path d="M7338 10903 c7 -3 16 -2 19 1 4 3 -2 6 -13 5 -11 0 -14 -3 -6 -6z"/>
    <path d="M7298 10893 c7 -3 16 -2 19 1 4 3 -2 6 -13 5 -11 0 -14 -3 -6 -6z"/>
    <path d="M7235 10880 c-13 -5 -14 -9 -5 -9 8 0 24 4 35 9 13 5 14 9 5 9 -8 0
-24 -4 -35 -9z"/>
    <path d="M7165 10860 c-13 -5 -14 -9 -5 -9 8 0 24 4 35 9 13 5 14 9 5 9 -8 0
-24 -4 -35 -9z"/>
    <path d="M7027 10818 c-32 -11 -57 -22 -54 -24 2 -2 35 7 73 20 38 14 62 24
54 24 -8 0 -41 -9 -73 -20z"/>
  </g>
</svg>
