<svg xmlns="http://www.w3.org/2000/svg" id="svg2" width="40" height="72" version="1.1"><metadata id="metadata7"/><g id="layer1" transform="translate(-85.908678,-382.30617)"><g id="g3128" transform="translate(134.35029,-0.99998396)"><path id="path3138" fill="#fe831d" d="m -32.441612,451.30615 0,-4 -4,0 -4,0 0,-12 0,-12 -4,0 -4,0 0,-8 0,-8 4,0 4,0 0,-4 0,-4 4,0 4,0 0,-4 0,-4 -4,0 -4,0 0,-4 0,-4 4,0 4,0 0,4 0,4 4,0 4,0 0,-4 0,-4 4,0 4,0 0,4 0,4 -4,0 -4,0 0,4 0,4 4,0 4,0 0,4 0,4 4,0 4,0 0,8 0,8 -4,0 -4,0 0,12 0,12 -4,0 -4,0 0,4 0,4 -4,0 -4,0 0,-4 z"/><path id="path3136" fill="#fe6500" d="m -32.441612,451.30615 0,-4 -4,0 -4,0 0,-12 0,-12 -4,0 -4,0 0,-8 0,-8 4,0 4,0 0,-4 0,-4 4,0 4,0 0,-4 0,-4 -4,0 -4,0 0,-4 0,-4 4,0 4,0 0,4 0,4 4,0 4,0 0,-4 0,-4 4,0 4,0 0,4 0,4 -4,0 -4,0 0,4 0,4 4,0 4,0 0,4 0,4 4,0 4,0 0,8 0,8 -4,0 -4,0 0,12 0,12 -4,0 -4,0 0,4 0,4 -4,0 -4,0 0,-4 z m 8,-48 0,-4 -4,0 -4,0 0,4 0,4 4,0 4,0 0,-4 z"/><path id="path3134" fill="#e04700" d="m -32.441612,451.30615 0,-4 -4,0 -4,0 0,-12 0,-12 -4,0 -4,0 0,-8 0,-8 4,0 4,0 0,-4 0,-4 4,0 4,0 0,-4 0,-4 -4,0 -4,0 0,-4 0,-4 4,0 4,0 0,4 0,4 4,0 4,0 0,-4 0,-4 4,0 4,0 0,4 0,4 -4,0 -4,0 0,4 0,4 4,0 4,0 0,4 0,4 4,0 4,0 0,8 0,8 -4,0 -4,0 0,12 0,12 -4,0 -4,0 0,4 0,4 -4,0 -4,0 0,-4 z m 8,-8 0,-4 -4,0 -4,0 0,4 0,4 4,0 4,0 0,-4 z m 0,-16 0,-4 4,0 4,0 0,-4 0,-4 -4,0 -4,0 0,-8 0,-8 -4,0 -4,0 0,8 0,8 -4,0 -4,0 0,4 0,4 4,0 4,0 0,4 0,4 4,0 4,0 0,-4 z m -8,-8 0,-4 4,0 4,0 0,4 0,4 -4,0 -4,0 0,-4 z"/><path id="path3132" fill="#486c17" d="m -32.441612,451.30615 0,-4 -4,0 -4,0 0,-12 0,-12 -4,0 -4,0 0,-8 0,-8 4,0 4,0 0,-4 0,-4 4,0 4,0 0,-4 0,-4 -4,0 -4,0 0,-4 0,-4 4,0 4,0 0,4 0,4 4,0 4,0 0,-4 0,-4 4,0 4,0 0,4 0,4 -4,0 -4,0 0,4 0,4 4,0 4,0 0,4 0,4 4,0 4,0 0,8 0,8 -4,0 -4,0 0,12 0,12 -4,0 -4,0 0,4 0,4 -4,0 -4,0 0,-4 z m 8,-16 0,-12 4,0 4,0 0,-8 0,-8 -4,0 -4,0 0,-4 0,-4 -4,0 -4,0 0,4 0,4 -4,0 -4,0 0,8 0,8 4,0 4,0 0,12 0,12 4,0 4,0 0,-12 z"/><path id="path3130" fill="#000" d="m -32.441612,451.30615 0,-4 -4,0 -4,0 0,-12 0,-12 -4,0 -4,0 0,-8 0,-8 4,0 4,0 0,-4 0,-4 4,0 4,0 0,4 0,4 -4,0 -4,0 0,8 0,8 4,0 4,0 0,12 0,12 4,0 4,0 0,-12 0,-12 4,0 4,0 0,-8 0,-8 -4,0 -4,0 0,-4 0,-4 4,0 4,0 0,4 0,4 4,0 4,0 0,8 0,8 -4,0 -4,0 0,12 0,12 -4,0 -4,0 0,4 0,4 -4,0 -4,0 0,-4 z"/></g></g></svg>