<svg xmlns="http://www.w3.org/2000/svg" width="902.667" height="1706.667" preserveAspectRatio="xMidYMid meet" version="1.0" viewBox="0 0 677 1280"><metadata>Created by potrace 1.15, written by Peter Selinger 2001-2017</metadata><g fill="#000" stroke="none"><path d="M507 12786 c-125 -35 -253 -173 -335 -361 -69 -160 -120 -374 -149 -631 -21 -187 -24 -788 -5 -999 50 -542 141 -1069 239 -1380 149 -471 559 -1142 1161 -1899 126 -159 335 -413 423 -514 l38 -44 -46 -56 c-285 -349 -477 -919 -478 -1412 0 -172 9 -245 52 -415 115 -465 447 -921 860 -1183 28 -18 53 -41 55 -50 2 -11 -19 -34 -62 -66 -95 -72 -278 -260 -333 -343 -91 -138 -142 -259 -174 -422 -22 -107 -24 -436 -4 -554 7 -43 11 -81 8 -83 -2 -3 -29 4 -58 16 -170 64 -397 110 -551 110 -248 0 -406 -89 -498 -282 -141 -295 -90 -566 158 -855 165 -191 510 -426 844 -572 73 -32 142 -62 152 -65 10 -4 17 -8 15 -9 -2 -2 -101 0 -219 4 -658 21 -1193 -86 -1407 -284 -86 -79 -134 -236 -85 -280 48 -43 200 -79 415 -96 346 -29 1172 2 1482 55 178 30 420 96 750 202 l151 48 84 -39 c108 -49 223 -81 270 -74 59 8 145 54 244 131 l92 72 120 -53 c317 -143 720 -289 948 -343 200 -47 309 -55 766 -54 423 0 582 10 845 50 319 49 495 129 495 226 0 39 -66 109 -149 158 -198 118 -689 287 -1178 406 -90 21 -163 41 -162 44 0 3 43 34 97 70 352 235 625 530 726 784 92 229 67 425 -80 632 -86 121 -209 201 -346 224 -245 42 -617 -124 -943 -422 -38 -34 -56 -46 -52 -33 89 283 101 356 94 560 -3 83 -13 184 -22 225 -36 165 -111 338 -208 480 -58 84 -217 254 -279 296 l-40 28 63 22 c150 50 284 138 394 257 296 319 475 897 475 1538 0 421 -85 770 -271 1110 l-36 67 116 143 c664 819 1159 1573 1389 2114 76 178 131 347 181 555 103 426 171 845 212 1320 19 207 15 727 -5 885 -50 386 -149 639 -303 775 -214 188 -528 154 -904 -98 -525 -353 -1179 -1166 -1570 -1952 -145 -292 -213 -526 -264 -900 -62 -465 -70 -1144 -22 -1823 l13 -167 -31 5 c-126 21 -189 26 -326 26 -86 0 -185 -3 -219 -7 l-62 -7 6 69 c44 492 50 1336 12 1749 -40 428 -114 785 -212 1023 -142 344 -478 868 -822 1282 -461 554 -909 930 -1247 1047 -87 30 -219 39 -288 19z" transform="translate(0.000000,1280.000000) scale(0.100000,-0.100000)"/></g></svg>