<svg xmlns="http://www.w3.org/2000/svg" xmlns:ns1="http://sozi.baierouge.fr" xmlns:svg="http://www.w3.org/2000/svg" xmlns:xlink="http://www.w3.org/1999/xlink" id="svg3197" version="1.1" viewBox="0 0 341 352"><g id="layer1" transform="translate(0 -700.36)"><g id="g4041" transform="translate(-8.4286 26.429)"><path id="path3205" fill="#ffb400" d="m203.98 895.06c-37.283 11.63-107.01 32.134-113.47 17.607-5.1555-11.594 50.945-43.793 91.837-63.514 15.338-7.3971 37.906 40.831 21.632 45.907z"/><path id="path4031" fill="#f0990a" d="m115.55 906.66c-4.9031-3.4385-7.2256-9.9539-8.6726-13.535l12.004-8.9001c-4.7765 7.2296-5.5863 18.33-3.3315 22.436z"/><path id="path3205-5" fill="none" stroke="#000" stroke-dashoffset="1.1" stroke-linecap="round" stroke-linejoin="round" stroke-width="3.709" d="m188.22 856.51c15.338-7.3971 37.906 40.831 21.632 45.907-37.283 11.63-107.01 32.134-113.47 17.607-2.5777-5.7971 10.159-16.745 28.651-28.71"/><path id="path3996" fill="#f0990a" d="m150.98 890.83c-6.844-5.6334-9.8771-8.7095-8.7025-20.875l14.419-7.9392c-13.257 12.289-9.7932 19.936-5.7169 28.814z"/><path id="path4000" fill="#f0990a" d="m184.64 169.32c-0.26623 11.77 15.328 22.455 20.179 24.464l-4.4643 1.9643c-5.1918-1.9587-18.854-17.577-15.714-26.429z" transform="translate(0 700.36)"/><path id="path4002" fill="#f0990a" d="m177.66 893.28c-6.2283-2.4867-13.048-18.898-13.581-24.881-1.04 4.6185 3.9224 20.435 7.7509 24.493z"/><path id="path3994" fill="#a1e27b" d="m203.67 864.14c-5.3562 3.4097-3.0065 8.7493 1.795 6.3159 10.228-5.1836 34.448-18.353 34.448-18.353l8.7713 20.772 7.6322-19.618s28.247 23.356 28.449 21.581c0.2026-1.7742-12.879-44.606-12.879-44.606l-11.619-5.2809 33.841-0.44912-30.327-39.769-13.451 26.502-10.251-14.111 5.0707 18.552-22.161 11.488 22.629 3.303 6.4079 6.8426-29.451-3.3632 13.626 6.5885s-18.763 14.84-32.531 23.604z"/><path id="path4004-6" fill="none" stroke="#2d8b1e" stroke-linecap="round" stroke-linejoin="round" stroke-width="2.6" d="m230.78 849.45 8.7713 20.772 7.6322-19.618s28.247 23.356 28.449 21.582c0.2026-1.7742-12.879-44.606-12.879-44.606l-11.619-5.2809 33.841-0.44912-30.327-39.769"/><path id="path4033" fill="#f0990a" d="m133.93 895.58c-1.323 7.895 0.64212 10.718 5.7143 16.786l9.6429-2.8571c-8.9425-0.81938-13.048-6.4756-15.357-13.929z"/></g></g><metadata/></svg>