<svg xmlns="http://www.w3.org/2000/svg" xmlns:xlink="http://www.w3.org/1999/xlink" id="svg2" width="508.429" height="546.721" version="1.1" viewBox="0 0 476.652 512.551"><defs id="defs4"><linearGradient id="linearGradient4760"><stop id="stop4762" offset="0" stop-color="#3d7d1e" stop-opacity="1"/><stop id="stop4764" offset="1" stop-color="#62a920" stop-opacity="1"/></linearGradient><linearGradient id="linearGradient4345"><stop id="stop4347" offset="0" stop-color="#ffb202" stop-opacity="1"/><stop id="stop4349" offset="1" stop-color="#ffc504" stop-opacity="1"/></linearGradient><linearGradient id="linearGradient4308"><stop id="stop4310" offset="0" stop-color="#458d22" stop-opacity="1"/><stop id="stop4312" offset="1" stop-color="#9dbc16" stop-opacity="1"/></linearGradient><linearGradient id="linearGradient4298"><stop id="stop4300" offset="0" stop-color="#fe880d" stop-opacity="1"/><stop id="stop4306" offset=".027" stop-color="#fe9b05" stop-opacity="1"/><stop id="stop4302" offset="1" stop-color="#ffa901" stop-opacity="1"/></linearGradient><linearGradient id="linearGradient4304" x1="213.571" x2="148.571" y1="354.505" y2="573.076" gradientUnits="userSpaceOnUse" xlink:href="#linearGradient4298"/><radialGradient id="radialGradient4314" cx="219.227" cy="340.434" r="58.432" fx="219.227" fy="340.434" gradientTransform="matrix(0.60191397,-0.15767191,0.13970704,0.53333299,39.710162,186.59015)" gradientUnits="userSpaceOnUse" xlink:href="#linearGradient4308"/><linearGradient id="linearGradient4351" x1="204.051" x2="137.886" y1="341.72" y2="537.689" gradientUnits="userSpaceOnUse" xlink:href="#linearGradient4345"/><radialGradient id="radialGradient4448" cx="219.227" cy="340.434" r="58.432" fx="219.227" fy="340.434" gradientTransform="matrix(0.60191397,-0.15767191,0.13970704,0.53333299,39.710162,186.59015)" gradientUnits="userSpaceOnUse" xlink:href="#linearGradient4308"/><linearGradient id="linearGradient4450" x1="213.571" x2="148.571" y1="354.505" y2="573.076" gradientUnits="userSpaceOnUse" xlink:href="#linearGradient4298"/><linearGradient id="linearGradient4452" x1="204.051" x2="137.886" y1="341.72" y2="537.689" gradientUnits="userSpaceOnUse" xlink:href="#linearGradient4345"/><radialGradient id="radialGradient4500" cx="219.227" cy="340.434" r="58.432" fx="219.227" fy="340.434" gradientTransform="matrix(0.61881783,0.06500269,-0.05759642,0.54831085,198.98766,147.46363)" gradientUnits="userSpaceOnUse" xlink:href="#linearGradient4308"/><linearGradient id="linearGradient4502" x1="213.571" x2="148.571" y1="354.505" y2="573.076" gradientTransform="matrix(0.93559561,0.35307344,-0.35307344,0.93559561,227.71503,-41.129898)" gradientUnits="userSpaceOnUse" xlink:href="#linearGradient4298"/><linearGradient id="linearGradient4504" x1="204.051" x2="137.886" y1="341.72" y2="537.689" gradientTransform="matrix(0.93559561,0.35307344,-0.35307344,0.93559561,227.71503,-41.129898)" gradientUnits="userSpaceOnUse" xlink:href="#linearGradient4345"/><radialGradient id="radialGradient4608" cx="219.227" cy="340.434" r="58.432" fx="219.227" fy="340.434" gradientTransform="matrix(0.55354308,-0.28416704,0.25178955,0.4904734,-32.194586,214.82791)" gradientUnits="userSpaceOnUse" xlink:href="#linearGradient4760"/><radialGradient id="radialGradient4778" cx="219.227" cy="340.434" r="58.432" fx="219.227" fy="340.434" gradientTransform="matrix(0.61630101,-0.08563827,0.07588078,0.5460808,94.568906,175.39473)" gradientUnits="userSpaceOnUse" xlink:href="#linearGradient4760"/></defs><metadata id="metadata7"/><g id="layer1" transform="translate(-10.099464,-5.3256141)"><g id="g4780" transform="matrix(1.4616011,0,0,1.4616011,-96.246706,-338.26918)"><path id="path4766" fill="url(#radialGradient4778)" fill-opacity="1" fill-rule="evenodd" stroke="#377b29" stroke-dasharray="none" stroke-linecap="butt" stroke-linejoin="miter" stroke-miterlimit="4" stroke-opacity="1" stroke-width="3" d="m 248.56415,344.65917 c 5.19065,-6.60562 0.44251,-18.01437 -7.96503,-18.82742 -8.94028,-2.80915 -18.25827,-8.98155 -20.10206,-18.81037 -0.42197,-8.85624 12.95072,-14.28883 18.44674,-7.0403 2.54923,6.17842 14.81803,6.87993 14.77926,-1.13383 -0.48711,-8.63773 -10.16352,-13.18443 -10.86941,-21.83159 -1.40305,-7.14019 2.78146,-14.88078 9.9277,-16.93938 10.44709,-4.07652 24.64979,0.54072 28.07297,11.89017 2.15909,6.74767 -0.3443,14.22002 -4.83806,19.43639 -2.84055,6.32208 4.40263,14.60902 10.99763,11.59026 10.52228,-2.92848 15.7694,-15.55241 27.23693,-16.25107 11.07282,-2.24112 20.31648,13.50845 12.37884,21.83102 -5.82304,6.57921 -15.66575,9.45209 -24.03358,6.56917 -6.51756,-1.66646 -12.30655,7.92014 -5.73321,11.7655 6.22032,4.91764 14.90664,4.85473 21.07155,9.95263 4.90179,3.38476 10.49004,7.46584 11.67268,13.66893 0.92474,7.59127 -7.00761,11.49836 -13.55119,10.41207 -14.72813,-0.66503 -27.15161,-9.49306 -39.31622,-16.9103 -3.32623,-2.98632 -7.99659,-2.49251 -11.59574,-0.24042 -4.37063,2.42161 -4.92732,9.93293 -9.6341,6.13133 l -6.1287,-4.48572 -0.817,-0.77707 z"/><path id="path4768" fill="#377b29" fill-opacity="1" fill-rule="evenodd" stroke="none" stroke-linecap="butt" stroke-linejoin="miter" stroke-opacity="1" stroke-width="1" d="m 252.25095,349.43603 c 0.58397,0.041 1.17059,0.0714 1.75813,0.0908 -0.20405,-0.62322 0.44504,-6.63163 8.41823,-17.52182 12.49098,-16.84009 31.44952,-23.36185 31.37213,-23.60385 -0.0774,-0.24205 -19.44965,5.49415 -32.82919,22.48981 -8.55952,10.73377 -10.00921,16.94117 -10.45021,18.19921 0.56703,0.18925 1.14621,0.30475 1.73091,0.3458 z"/><path id="path4772" fill="#377b29" fill-opacity="1" fill-rule="evenodd" stroke="none" stroke-linecap="butt" stroke-linejoin="miter" stroke-opacity="1" stroke-width="1" d="m 252.88644,348.36706 c 0.57434,0.11658 1.15534,0.20019 1.7439,0.24827 -0.11167,-0.84229 0.76081,-6.33626 3.69856,-19.61813 4.67956,-20.55956 5.40572,-37.91446 5.10342,-37.93258 -0.30253,-0.0181 -1.65073,17.24357 -6.88574,37.49964 -3.48656,13.16572 -4.91068,18.55561 -5.35919,19.33683 0.5581,0.19476 1.12473,0.3494 1.69905,0.46597 z"/><path id="path4776" fill="#fb7d0d" fill-opacity="1" stroke="#dd7101" stroke-dasharray="none" stroke-dashoffset="0" stroke-linecap="round" stroke-linejoin="round" stroke-miterlimit="4" stroke-opacity="1" stroke-width="3" d="m 262.22079,404.94247 c -23.82059,38.5774 -42.96646,65.89088 -67.77013,105.46473 -11.5654,18.45241 -26.40376,29.92054 -30.24053,27.79013 -16.1691,-8.9781 8.46315,-125.97379 45.07073,-172.99232 9.14223,-11.74222 23.93973,-27.0903 39.12389,-21.50492 15.18417,5.58539 34.25163,28.14699 13.81604,61.24238 z" opacity="1"/><path id="path4564" fill="url(#radialGradient4608)" fill-opacity="1" fill-rule="evenodd" stroke="#377b29" stroke-dasharray="none" stroke-linecap="butt" stroke-linejoin="miter" stroke-miterlimit="4" stroke-opacity="1" stroke-width="3" d="m 169.02078,323.81122 c 2.72079,-7.94823 -5.52537,-17.15178 -13.73043,-15.14558 -9.3665,0.29761 -20.19913,-2.45513 -25.18231,-11.12537 -3.3201,-8.22119 7.51163,-17.7614 15.09129,-12.73189 4.44483,4.99149 16.25817,1.60614 13.57775,-5.94616 -3.3095,-7.99343 -13.94416,-9.09323 -17.4633,-17.02338 -3.68011,-6.27755 -2.28358,-14.96527 3.78341,-19.26623 8.5173,-7.29488 23.4481,-7.62175 30.42392,1.96294 4.26433,5.65758 4.36629,13.53747 1.84505,19.94432 -0.5958,6.90525 8.9758,12.33863 14.20564,7.31313 8.96703,-6.23592 9.75563,-19.88414 20.35063,-24.32693 9.71351,-5.76867 23.63557,6.04955 18.88804,16.52486 -3.32649,8.13193 -11.67034,14.09117 -20.52078,14.13028 -6.70244,0.57705 -9.00461,11.53676 -1.53067,12.99822 7.49443,2.59018 15.67367,-0.33491 23.17527,2.44371 5.74402,1.57811 12.36578,3.58709 15.52867,9.05272 3.37739,6.86117 -2.82186,13.16647 -9.35746,14.29979 -14.12294,4.23115 -28.76331,-0.004 -42.69387,-2.99275 -4.12522,-1.72177 -8.37119,0.28519 -11.02584,3.59858 -3.32702,3.72794 -1.37449,11.00238 -7.07193,8.96643 l -7.26546,-2.21266 -1.02762,-0.46403 z"/><path id="path4566" fill="#377b29" fill-opacity="1" fill-rule="evenodd" stroke="none" stroke-linecap="butt" stroke-linejoin="miter" stroke-opacity="1" stroke-width="1" d="m 174.0771,327.10433 c 0.5648,-0.15395 1.12861,-0.3188 1.68967,-0.49426 -0.39823,-0.52101 -1.76771,-6.40716 2.16631,-19.31807 6.23593,-20.01815 21.98145,-32.42937 21.82855,-32.63229 -0.15293,-0.20296 -16.54815,11.60316 -23.57157,32.06131 -4.53912,12.95668 -3.85977,19.29482 -3.86104,20.62792 0.59771,-0.008 1.18257,-0.0905 1.74808,-0.24461 z"/><path id="path4568" fill="#377b29" fill-opacity="1" fill-rule="evenodd" stroke="none" stroke-linecap="butt" stroke-linejoin="miter" stroke-opacity="1" stroke-width="1" d="m 174.32435,325.88555 c 0,0 0,0 0,0 0.58065,-0.0794 1.1567,-0.19218 1.72817,-0.34096 -0.3833,-0.75829 -1.37218,-6.23251 -2.98072,-19.73995 -2.36522,-20.95231 -7.40527,-37.57513 -7.69662,-37.4925 -0.29157,0.0827 4.1305,16.82275 5.87126,37.6718 1.05214,13.57886 1.48593,19.13681 1.32025,20.02226 0.59112,-2.7e-4 1.17703,-0.0412 1.75766,-0.12065 z"/><path id="path4570" fill="#fb7d0d" fill-opacity="1" stroke="#dd7101" stroke-dasharray="none" stroke-dashoffset="0" stroke-linecap="round" stroke-linejoin="round" stroke-miterlimit="4" stroke-opacity="1" stroke-width="3" d="m 201.80085,376.21397 c -14.31073,64.92118 -31.40952,169.69641 -45.00947,167.35255 -18.2258,-3.1411 -37.69354,-127.78822 -18.07625,-187.39984 4.65187,-14.13577 13.66206,-33.47153 29.83877,-33.20825 16.17672,0.26328 41.61994,15.27118 33.24695,53.25554 z" opacity="1"/><path id="path4462" fill="url(#linearGradient4502)" fill-opacity="1" stroke="#dd7101" stroke-dasharray="none" stroke-dashoffset="0" stroke-linecap="round" stroke-linejoin="round" stroke-miterlimit="4" stroke-opacity="1" stroke-width="3" d="m 306.55212,410.57808 c -47.49939,46.51198 -147.62226,179.6042 -157.72361,170.20127 -13.53719,-12.60122 50.7964,-169.47202 115.88666,-221.49817 11.62454,-9.2914 29.74921,-20.54215 43.14578,-11.47092 13.39658,9.07123 26.48232,35.5544 -1.30883,62.76782 z" opacity="1"/><path id="path4572" fill="#dd2501" fill-opacity="1" fill-rule="evenodd" stroke="#dd2501" stroke-linecap="round" stroke-linejoin="round" stroke-opacity="1" stroke-width="1" d="m 145.79466,405.90184 c 7.11034,-0.78847 14.32283,-0.8224 21.4766,-0.0933 0,0 0.0307,0.003 0.0307,0.003 6.36739,0.98198 12.62456,2.56796 18.66082,4.72347 -6.14435,-1.82497 -12.44646,-3.0598 -18.79195,-3.68846 0,0 -0.0302,-0.005 -0.0302,-0.005 -7.03708,-1.06436 -14.20568,-1.3827 -21.346,-0.94014 z"/><path id="path4574" fill="#dd2501" fill-opacity="1" fill-rule="evenodd" stroke="#dd2501" stroke-linecap="round" stroke-linejoin="round" stroke-opacity="1" stroke-width="1" d="m 140.45324,499.68758 c 4.45835,-0.18435 8.93952,-0.1 13.41096,0.25525 0,0 0.0728,0.0122 0.0728,0.0122 3.82877,0.66866 7.61261,1.53589 11.33135,2.59492 -3.80582,-0.68297 -7.63743,-1.16505 -11.47367,-1.44568 -1e-5,0 -0.0728,-0.006 -0.0728,-0.006 -4.37759,-0.73473 -8.81109,-1.2071 -13.26862,-1.41086 z"/><path id="path4576" fill="#dd2501" fill-opacity="1" fill-rule="evenodd" stroke="#dd2501" stroke-linecap="round" stroke-linejoin="round" stroke-opacity="1" stroke-width="1" d="m 159.32428,499.9521 c -2.14734,-0.84168 -4.40645,-1.42753 -6.71377,-1.73578 0,0 -0.0196,-0.003 -0.0196,-0.003 -1.92961,-0.0925 -3.85945,0.009 -5.75144,0.29852 1.91076,-0.11266 3.82382,-0.0332 5.7013,0.23323 0,0 0.0194,9.2e-4 0.0194,9.2e-4 2.2815,0.12758 4.55833,0.53174 6.76409,1.20588 z"/><path id="path4578" fill="#dd2501" fill-opacity="1" fill-rule="evenodd" stroke="#dd2501" stroke-linecap="round" stroke-linejoin="round" stroke-opacity="1" stroke-width="1" d="m 161.54433,550.24064 c -2.81162,-1.10204 -5.76958,-1.86912 -8.79066,-2.27274 0,0 -0.0257,-0.004 -0.0257,-0.004 -2.52653,-0.12116 -5.05337,0.0115 -7.53064,0.39083 2.50185,-0.14749 5.00672,-0.0435 7.46499,0.3054 0,0 0.0254,0.001 0.0254,0.001 2.98729,0.16705 5.96844,0.69624 8.85656,1.57892 z"/><path id="path4590" fill="#337808" fill-opacity="1" fill-rule="evenodd" stroke="none" stroke-linecap="butt" stroke-linejoin="miter" stroke-opacity="1" stroke-width="1" d="m 176.74206,308.28205 c 0,0 0,0 0,0 0.22604,0.17468 0.46766,0.32913 0.72408,0.46773 0.30174,-0.5721 3.32107,-4.20039 9.60997,-5.82454 6.46285,-1.67817 11.99459,-0.14509 12.03456,-0.27285 0.04,-0.12779 -5.45644,-2.0449 -12.23989,-0.59727 -6.62711,1.42308 -10.03833,4.99516 -10.72044,5.59641 0.1679,0.2446 0.36571,0.45586 0.59172,0.63052 z"/><path id="path4592" fill="#337808" fill-opacity="1" fill-rule="evenodd" stroke="none" stroke-linecap="butt" stroke-linejoin="miter" stroke-opacity="1" stroke-width="1" d="m 172.2101,307.12546 c 0.24732,-0.14289 0.47159,-0.32581 0.67069,-0.54577 -0.59564,-0.68703 -3.49883,-4.68298 -9.87627,-6.97902 -6.52913,-2.34127 -12.23245,-1.17598 -12.20991,-1.044 0.0225,0.13196 5.70954,-0.64802 11.89013,1.87886 6.01538,2.45011 8.52269,6.4494 8.74526,7.05669 0.27264,-0.10309 0.53275,-0.22385 0.7801,-0.36676 z"/><path id="path4604" fill="#dd2501" fill-opacity="1" fill-rule="evenodd" stroke="#dd2501" stroke-linecap="round" stroke-linejoin="round" stroke-opacity="1" stroke-width="1.443" d="m 135.12738,448.95151 c 8.15627,-2.03633 16.73204,-2.65507 25.22177,-1.77604 0.046,0.009 0.092,0.0176 0.13799,0.0265 7.33618,1.46321 14.39012,4.04214 20.85039,7.58704 -6.77975,-2.88893 -13.95015,-4.71346 -21.17335,-5.42212 -0.0452,-0.005 -0.0904,-0.009 -0.13556,-0.014 -8.12933,-1.56749 -16.59756,-1.719 -24.90124,-0.40132 z"/><path id="path4606" fill="#dd2501" fill-opacity="1" fill-rule="evenodd" stroke="#dd2501" stroke-linecap="round" stroke-linejoin="round" stroke-opacity="1" stroke-width="1.443" d="m 174.75094,448.98913 c -5.12767,-2.14929 -10.55336,-3.64453 -16.10279,-4.42633 -0.0874,-0.007 -0.17488,-0.0138 -0.26233,-0.0204 -5.14589,-0.37327 -10.31548,-0.13342 -15.36583,0.70344 5.09477,-0.50113 10.22863,-0.39471 15.25911,0.3069 0.0855,0.0117 0.17106,0.0235 0.25654,0.0355 5.4989,0.43032 10.96441,1.57261 16.2153,3.40086 z"/><path id="path4494" fill="url(#linearGradient4504)" fill-opacity="1" stroke="none" stroke-dasharray="none" stroke-dashoffset="0" stroke-linecap="round" stroke-linejoin="round" stroke-miterlimit="4" stroke-opacity="1" stroke-width="3" d="m 265.44102,366.45188 c -49.70077,44.15191 -116.9598,174.45276 -114.98072,211.71661 -13.53719,-12.60122 49.98842,-167.46937 114.25487,-218.88731 11.6201,-9.29695 29.74921,-20.54215 43.14578,-11.47092 4.97132,3.36623 9.89983,9.1302 12.71256,16.43946 -21.918,-32.77267 -47.48889,-4.58807 -55.13249,2.20216 z" opacity="1"/><path id="path4496" fill="#dd2501" fill-opacity="1" fill-rule="evenodd" stroke="#dd2501" stroke-linecap="round" stroke-linejoin="round" stroke-opacity="1" stroke-width="1.443" d="m 210.9462,434.98319 c 7.94131,2.75809 15.45814,6.93228 22.08347,12.3131 0.0337,0.0325 0.0674,0.0651 0.10101,0.0977 5.34013,5.23866 9.83356,11.2568 13.30155,17.75868 -4.09431,-6.12761 -9.09799,-11.57799 -14.75639,-16.12324 -0.0352,-0.0287 -0.0705,-0.0573 -0.10578,-0.0859 -5.94697,-5.75991 -12.95236,-10.52 -20.62386,-13.96028 z"/><path id="path4466" fill="#dd2501" fill-opacity="1" fill-rule="evenodd" stroke="#dd2501" stroke-linecap="round" stroke-linejoin="round" stroke-opacity="1" stroke-width="1" d="m 187.64467,480.36549 c 3.83271,2.28501 7.53749,4.80742 11.08592,7.55126 0,0 0.0543,0.05 0.0543,0.05 2.83901,2.65455 5.53175,5.45074 8.06506,8.37185 -2.81195,-2.65398 -5.75542,-5.15391 -8.81298,-7.48775 0,0 -0.0578,-0.0447 -0.0578,-0.0447 -3.26224,-3.01014 -6.71483,-5.83125 -10.3345,-8.44068 z"/><path id="path4468" fill="#dd2501" fill-opacity="1" fill-rule="evenodd" stroke="#dd2501" stroke-linecap="round" stroke-linejoin="round" stroke-opacity="1" stroke-width="1" d="m 203.29584,490.91191 c -1.33692,-1.8794 -2.90734,-3.60581 -4.67,-5.12626 0,0 -0.0149,-0.013 -0.0149,-0.013 -1.56454,-1.13322 -3.23535,-2.10429 -4.97752,-2.897 1.66102,0.95117 3.21886,2.06439 4.64461,3.31465 0,0 0.0157,0.0114 0.0157,0.0114 1.83991,1.35508 3.52458,2.93911 5.00206,4.71024 z"/><path id="path4470" fill="#dd2501" fill-opacity="1" fill-rule="evenodd" stroke="#dd2501" stroke-linecap="round" stroke-linejoin="round" stroke-opacity="1" stroke-width="1" d="m 177.63948,534.2203 c -1.7505,-2.46079 -3.80673,-4.72126 -6.11467,-6.71205 0,0 -0.0195,-0.0171 -0.0195,-0.0171 -2.04853,-1.48378 -4.23619,-2.75525 -6.5173,-3.79318 2.17485,1.24542 4.21461,2.70301 6.08142,4.34004 -1e-5,0 0.0206,0.0149 0.0206,0.0149 2.40908,1.77428 4.61491,3.84833 6.54945,6.16735 z"/><g id="g4402" transform="matrix(0.92188641,-0.38746026,0.38746026,0.92188641,-207.7828,94.207926)"><path id="path4404" fill="url(#radialGradient4448)" fill-opacity="1" fill-rule="evenodd" stroke="#337808" stroke-dasharray="none" stroke-linecap="butt" stroke-linejoin="miter" stroke-miterlimit="4" stroke-opacity="1" stroke-width="3" d="m 212.57993,336.52691 c 4.37602,-7.1713 -1.68355,-17.94099 -10.12832,-17.75755 -9.20904,-1.73597 -19.1895,-6.76725 -22.17876,-16.31028 -1.46273,-8.7448 11.17656,-15.71549 17.4885,-9.16518 3.25959,5.83494 15.52557,5.08571 14.54265,-2.86764 -1.50165,-8.52014 -11.64647,-11.8948 -13.36649,-20.39851 -2.23473,-6.92508 1.00839,-15.10487 7.86223,-17.99131 9.89387,-5.27929 24.54174,-2.368 29.27859,8.49895 2.93925,6.4462 1.33391,14.16151 -2.5138,19.87111 -2.0757,6.61278 6.09362,13.98837 12.2869,10.21343 10.10384,-4.14811 13.82668,-17.30244 25.13196,-19.34766 10.73154,-3.53043 21.76686,11.02004 14.86535,20.22005 -5.00712,7.2196 -14.44268,11.23242 -23.09194,9.35572 -6.66854,-0.88675 -11.28742,9.31527 -4.30671,12.35917 6.75651,4.15032 15.37489,3.06417 22.09762,7.40002 5.26653,2.7835 11.29678,6.17758 13.20221,12.19807 1.81292,7.42938 -5.60371,12.24407 -12.22971,11.9365 -14.70387,1.0753 -28.08108,-6.22744 -41.0351,-12.15908 -3.65499,-2.57352 -8.23461,-1.53275 -11.54327,1.1278 -4.05479,2.9198 -3.7224,10.44439 -8.84439,7.22397 l -6.61464,-3.73221 -0.90288,-0.67537 z"/><path id="path4406" fill="#337808" fill-opacity="1" fill-rule="evenodd" stroke="none" stroke-linecap="butt" stroke-linejoin="miter" stroke-opacity="1" stroke-width="1" d="m 216.80399,340.836 c 0.58473,-0.0281 1.17085,-0.0671 1.75659,-0.11698 -0.27608,-0.59483 -0.33961,-6.63786 6.29463,-18.3918 10.41934,-18.19479 28.4772,-26.90533 28.37183,-27.13653 -0.10539,-0.23124 -18.66665,7.74798 -29.95001,26.20196 -7.23492,11.66771 -7.94297,18.0027 -8.23264,19.30395 0.58538,0.12111 1.17414,0.16754 1.7596,0.1394 z"/><path id="path4408" fill="#337808" fill-opacity="1" fill-rule="evenodd" stroke="none" stroke-linecap="butt" stroke-linejoin="miter" stroke-opacity="1" stroke-width="1" d="m 217.30907,339.69958 c 0.58408,0.0481 1.17088,0.0626 1.76101,0.041 -0.21016,-0.82325 0.009,-6.38175 1.36081,-19.91729 2.22402,-20.96777 0.89987,-38.28731 0.59754,-38.26968 -0.30256,0.0177 0.3929,17.31795 -2.41846,38.0498 -1.91069,13.48487 -2.6897,19.00503 -3.04303,19.83366 0.57717,0.12763 1.15807,0.21441 1.74213,0.26249 z"/><path id="path4410" fill="url(#linearGradient4450)" fill-opacity="1" stroke="#dd7101" stroke-dasharray="none" stroke-dashoffset="0" stroke-linecap="round" stroke-linejoin="round" stroke-miterlimit="4" stroke-opacity="1" stroke-width="3" d="m 233.24573,394.78072 c -28.01808,60.28718 -75.28935,194.56742 -88.06005,189.3366 -17.11449,-7.01002 -7.94425,-158.46895 30.80601,-222.55824 7.69979,-12.73473 20.58034,-29.7228 36.31692,-25.96577 15.73659,3.75703 37.33006,23.91433 20.93712,59.18741 z" opacity="1"/><path id="path4412" fill="#dd2501" fill-opacity="1" fill-rule="evenodd" stroke="#dd2501" stroke-linecap="round" stroke-linejoin="round" stroke-opacity="1" stroke-width="1" d="m 172.14286,411.64792 c 7.11251,0.7686 14.16151,2.29596 20.98808,4.55561 0,0 0.0293,0.01 0.0293,0.01 6.00411,2.33637 11.76993,5.23859 17.19685,8.64904 -5.60397,-3.11113 -11.48964,-5.68023 -17.54881,-7.66691 0,0 -0.0285,-0.0111 -0.0285,-0.0111 -6.64011,-2.56169 -13.57003,-4.42349 -20.63698,-5.53629 z"/><path id="path4414" fill="#dd2501" fill-opacity="1" fill-rule="evenodd" stroke="#dd2501" stroke-linecap="round" stroke-linejoin="round" stroke-opacity="1" stroke-width="1" d="m 146.63652,502.05657 c 4.39264,0.78462 8.74942,1.83652 13.03809,3.15079 0,0 0.0685,0.0276 0.0685,0.0276 3.59341,1.48121 7.09999,3.14656 10.50151,4.9851 -3.5679,-1.49022 -7.20446,-2.78989 -10.88911,-3.89388 0,0 -0.0699,-0.0214 -0.0699,-0.0214 -4.11493,-1.66446 -8.34123,-3.08487 -12.64909,-4.24823 z"/><path id="path4416" fill="#dd2501" fill-opacity="1" fill-rule="evenodd" stroke="#dd2501" stroke-linecap="round" stroke-linejoin="round" stroke-opacity="1" stroke-width="1" d="m 165.00335,506.39775 c -1.91438,-1.28633 -3.99322,-2.34708 -6.17919,-3.14725 0,0 -0.0185,-0.007 -0.0185,-0.007 -1.86389,-0.50784 -3.76994,-0.82645 -5.67979,-0.95299 1.88987,0.30345 3.74043,0.79494 5.51579,1.46129 0,0 0.0188,0.005 0.0188,0.005 2.19985,0.61819 4.3353,1.50539 6.34297,2.64079 z"/><path id="path4418" fill="#dd2501" fill-opacity="1" fill-rule="evenodd" stroke="#dd2501" stroke-linecap="round" stroke-linejoin="round" stroke-opacity="1" stroke-width="1" d="m 156.29041,555.97547 c -2.50659,-1.68425 -5.22852,-3.07314 -8.09071,-4.12085 0,0 -0.0243,-0.009 -0.0243,-0.009 -2.44047,-0.66494 -4.93616,-1.08211 -7.43682,-1.24779 2.4745,0.39732 4.89752,1.04085 7.22209,1.91333 0,0 0.0245,0.007 0.0245,0.007 2.88038,0.80942 5.67643,1.97108 8.30517,3.45771 z"/><ellipse id="ellipse4420" cx="273.161" cy="316.387" fill="#2c1600" fill-opacity="1" stroke="none" stroke-dasharray="none" stroke-dashoffset="0" stroke-linecap="round" stroke-linejoin="round" stroke-miterlimit="4" stroke-opacity="1" stroke-width="3" opacity="1" rx="3.536" ry="8.586" transform="matrix(0.97390254,0.2269666,-0.2269666,0.97390254,0,0)"/><ellipse id="ellipse4422" cx="293.111" cy="316.387" fill="#2c1600" fill-opacity="1" stroke="none" stroke-dasharray="none" stroke-dashoffset="0" stroke-linecap="round" stroke-linejoin="round" stroke-miterlimit="4" stroke-opacity="1" stroke-width="3" opacity="1" rx="3.536" ry="8.586" transform="matrix(0.97390254,0.2269666,-0.2269666,0.97390254,0,0)"/><path id="path4424" fill="#a50000" fill-opacity="1" stroke="none" stroke-dasharray="none" stroke-dashoffset="0" stroke-linecap="round" stroke-linejoin="round" stroke-miterlimit="4" stroke-opacity="1" stroke-width="3" d="m 191.8076,384.29522 c 4.88155,0.70395 9.67196,1.90071 16.80627,3.3543 0,0 -7.28801,19.18087 -14.40964,17.03601 -6.55282,-1.97355 -2.39663,-20.39031 -2.39663,-20.39031 z" opacity="1"/><path id="path4426" fill="none" fill-opacity="1" stroke="#2c1600" stroke-dasharray="none" stroke-dashoffset="0" stroke-linecap="round" stroke-linejoin="round" stroke-miterlimit="4" stroke-opacity="1" stroke-width="3" d="m 192.65239,350.05483 3.03573,-0.82311" opacity="1"/><path id="path4428" fill="none" fill-opacity="1" stroke="#2c1600" stroke-dasharray="none" stroke-dashoffset="0" stroke-linecap="round" stroke-linejoin="round" stroke-miterlimit="4" stroke-opacity="1" stroke-width="3" d="m 225.7163,354.18721 -2.64203,-1.70671" opacity="1"/><path id="path4430" fill="#337808" fill-opacity="1" fill-rule="evenodd" stroke="none" stroke-linecap="butt" stroke-linejoin="miter" stroke-opacity="1" stroke-width="1" d="m 223.4782,323.03614 c 0.18289,0.21945 0.38538,0.42251 0.60574,0.61331 0.41837,-0.49326 4.15119,-3.38235 10.64253,-3.60738 6.67286,-0.2401 11.74187,2.4535 11.80854,2.33741 0.0667,-0.11611 -4.88476,-3.177 -11.82075,-3.23133 -6.77803,-0.0445 -10.8813,2.70495 -11.67735,3.14438 0.11101,0.27514 0.25843,0.52419 0.44129,0.74361 z"/><path id="path4432" fill="#337808" fill-opacity="1" fill-rule="evenodd" stroke="none" stroke-linecap="butt" stroke-linejoin="miter" stroke-opacity="1" stroke-width="1" d="m 219.30383,320.92641 c 0.27238,-0.086 0.53092,-0.21606 0.77288,-0.38774 -0.43288,-0.79963 -2.40275,-5.32906 -8.13236,-8.95053 -5.86792,-3.69845 -11.68827,-3.79474 -11.69482,-3.661 -0.007,0.13371 5.7145,0.60264 11.20198,4.4069 5.3428,3.69356 6.92544,8.1406 7.01134,8.78166 0.2885,-0.0417 0.56857,-0.10329 0.84098,-0.18929 z"/><ellipse id="ellipse4434" cx="272.634" cy="314.126" fill="#fff" fill-opacity="1" stroke="none" stroke-dasharray="none" stroke-dashoffset="0" stroke-linecap="round" stroke-linejoin="round" stroke-miterlimit="4" stroke-opacity="1" stroke-width="3" opacity="1" rx="1.318" ry="3.202" transform="matrix(0.97390254,0.2269666,-0.2269666,0.97390254,0,0)"/><ellipse id="ellipse4436" cx="292.77" cy="313.349" fill="#fff" fill-opacity="1" stroke="none" stroke-dasharray="none" stroke-dashoffset="0" stroke-linecap="round" stroke-linejoin="round" stroke-miterlimit="4" stroke-opacity="1" stroke-width="3" opacity="1" rx="1.281" ry="3.111" transform="matrix(0.97390254,0.2269666,-0.2269666,0.97390254,0,0)"/><path id="path4438" fill="#f24e3d" fill-opacity="1" stroke="none" stroke-dasharray="none" stroke-dashoffset="0" stroke-linecap="round" stroke-linejoin="round" stroke-miterlimit="4" stroke-opacity="1" stroke-width="3" d="m 193.38477,394.39453 a 9.6793899,6.3694725 12.371486 0 0 -2.86133,0.45117 c -0.0798,4.49782 0.65149,8.92724 3.68164,9.83985 3.24401,0.97701 6.51455,-2.47712 9.12304,-6.52149 a 9.6793899,6.3694725 12.371486 0 0 -6.42578,-3.4414 9.6793899,6.3694725 12.371486 0 0 -3.51757,-0.32813 z" opacity="1"/><path id="path4440" fill="none" fill-opacity="1" stroke="#2c1600" stroke-dasharray="none" stroke-dashoffset="0" stroke-linecap="round" stroke-linejoin="round" stroke-miterlimit="4" stroke-opacity="1" stroke-width="1.5" d="m 191.8076,384.29522 c 4.88155,0.70395 9.67196,1.90071 16.80627,3.3543 0,0 -7.28801,19.18087 -14.40964,17.03601 -6.55282,-1.97355 -2.39663,-20.39031 -2.39663,-20.39031 z" opacity="1"/><path id="path4442" fill="url(#linearGradient4452)" fill-opacity="1" stroke="none" stroke-dasharray="none" stroke-dashoffset="0" stroke-linecap="round" stroke-linejoin="round" stroke-miterlimit="4" stroke-opacity="1" stroke-width="3" d="m 179.20257,368.01168 c -30.91095,58.85635 -49.02539,181.94051 -34.01689,216.10564 -17.11449,-7.01002 -7.94425,-158.46895 30.80601,-222.55824 7.69979,-12.73473 20.58034,-29.7228 36.31692,-25.96577 5.83967,1.39419 12.48587,5.04681 17.69815,10.89222 -32.07754,-22.92331 -46.05032,12.47449 -50.80419,21.52615 z" opacity="1"/><path id="path4444" fill="#dd2501" fill-opacity="1" fill-rule="evenodd" stroke="#dd2501" stroke-linecap="round" stroke-linejoin="round" stroke-opacity="1" stroke-width="1.443" d="m 152.41404,451.36994 c 8.40366,-0.22341 16.91017,1.02796 25.00863,3.723 0.043,0.0185 0.086,0.0371 0.12898,0.0557 6.84584,3.01581 13.17472,7.05985 18.715,11.91852 -5.99411,-4.28737 -12.59992,-7.62006 -19.4987,-9.87474 -0.0431,-0.0144 -0.0862,-0.0287 -0.12931,-0.043 -7.59764,-3.28922 -15.83251,-5.26933 -24.2246,-5.77944 z"/><path id="path4446" fill="#dd2501" fill-opacity="1" fill-rule="evenodd" stroke="#dd2501" stroke-linecap="round" stroke-linejoin="round" stroke-opacity="1" stroke-width="1.443" d="m 191.09093,459.9796 c -4.54119,-3.2078 -9.51486,-5.84152 -14.7637,-7.80548 -0.0838,-0.0257 -0.16776,-0.0513 -0.25171,-0.0766 -4.94324,-1.47779 -10.04227,-2.36211 -15.15406,-2.63776 5.08252,0.61304 10.07175,1.8277 14.83128,3.60108 0.081,0.0299 0.16192,0.06 0.24278,0.0902 5.27554,1.60986 10.36446,3.90761 15.09541,6.82864 z"/></g><g id="g4378"><path id="path4241" fill="url(#radialGradient4314)" fill-opacity="1" fill-rule="evenodd" stroke="#337808" stroke-dasharray="none" stroke-linecap="butt" stroke-linejoin="miter" stroke-miterlimit="4" stroke-opacity="1" stroke-width="3" d="m 212.57993,336.52691 c 4.37602,-7.1713 -1.68355,-17.94099 -10.12832,-17.75755 -9.20904,-1.73597 -19.1895,-6.76725 -22.17876,-16.31028 -1.46273,-8.7448 11.17656,-15.71549 17.4885,-9.16518 3.25959,5.83494 15.52557,5.08571 14.54265,-2.86764 -1.50165,-8.52014 -11.64647,-11.8948 -13.36649,-20.39851 -2.23473,-6.92508 1.00839,-15.10487 7.86223,-17.99131 9.89387,-5.27929 24.54174,-2.368 29.27859,8.49895 2.93925,6.4462 1.33391,14.16151 -2.5138,19.87111 -2.0757,6.61278 6.09362,13.98837 12.2869,10.21343 10.10384,-4.14811 13.82668,-17.30244 25.13196,-19.34766 10.73154,-3.53043 21.76686,11.02004 14.86535,20.22005 -5.00712,7.2196 -14.44268,11.23242 -23.09194,9.35572 -6.66854,-0.88675 -11.28742,9.31527 -4.30671,12.35917 6.75651,4.15032 15.37489,3.06417 22.09762,7.40002 5.26653,2.7835 11.29678,6.17758 13.20221,12.19807 1.81292,7.42938 -5.60371,12.24407 -12.22971,11.9365 -14.70387,1.0753 -28.08108,-6.22744 -41.0351,-12.15908 -3.65499,-2.57352 -8.23461,-1.53275 -11.54327,1.1278 -4.05479,2.9198 -3.7224,10.44439 -8.84439,7.22397 l -6.61464,-3.73221 -0.90288,-0.67537 z"/><path id="path4320" fill="#337808" fill-opacity="1" fill-rule="evenodd" stroke="none" stroke-linecap="butt" stroke-linejoin="miter" stroke-opacity="1" stroke-width="1" d="m 216.80399,340.836 c 0.58473,-0.0281 1.17085,-0.0671 1.75659,-0.11698 -0.27608,-0.59483 -0.33961,-6.63786 6.29463,-18.3918 10.41934,-18.19479 28.4772,-26.90533 28.37183,-27.13653 -0.10539,-0.23124 -18.66665,7.74798 -29.95001,26.20196 -7.23492,11.66771 -7.94297,18.0027 -8.23264,19.30395 0.58538,0.12111 1.17414,0.16754 1.7596,0.1394 z"/><path id="path4316" fill="#337808" fill-opacity="1" fill-rule="evenodd" stroke="none" stroke-linecap="butt" stroke-linejoin="miter" stroke-opacity="1" stroke-width="1" d="m 217.30907,339.69958 c 0.58408,0.0481 1.17088,0.0626 1.76101,0.041 -0.21016,-0.82325 0.009,-6.38175 1.36081,-19.91729 2.22402,-20.96777 0.89987,-38.28731 0.59754,-38.26968 -0.30256,0.0177 0.3929,17.31795 -2.41846,38.0498 -1.91069,13.48487 -2.6897,19.00503 -3.04303,19.83366 0.57717,0.12763 1.15807,0.21441 1.74213,0.26249 z"/><path id="path4136" fill="url(#linearGradient4304)" fill-opacity="1" stroke="#dd7101" stroke-dasharray="none" stroke-dashoffset="0" stroke-linecap="round" stroke-linejoin="round" stroke-miterlimit="4" stroke-opacity="1" stroke-width="3" d="m 233.24573,394.78072 c -28.01808,60.28718 -75.28935,194.56742 -88.06005,189.3366 -17.11449,-7.01002 -7.94425,-158.46895 30.80601,-222.55824 7.69979,-12.73473 20.58034,-29.7228 36.31692,-25.96577 15.73659,3.75703 37.33006,23.91433 20.93712,59.18741 z" opacity="1"/><path id="path4161" fill="#dd2501" fill-opacity="1" fill-rule="evenodd" stroke="#dd2501" stroke-linecap="round" stroke-linejoin="round" stroke-opacity="1" stroke-width="1" d="m 172.14286,411.64792 c 7.11251,0.7686 14.16151,2.29596 20.98808,4.55561 0,0 0.0293,0.01 0.0293,0.01 6.00411,2.33637 11.76993,5.23859 17.19685,8.64904 -5.60397,-3.11113 -11.48964,-5.68023 -17.54881,-7.66691 0,0 -0.0285,-0.0111 -0.0285,-0.0111 -6.64011,-2.56169 -13.57003,-4.42349 -20.63698,-5.53629 z"/><path id="path4191" fill="#dd2501" fill-opacity="1" fill-rule="evenodd" stroke="#dd2501" stroke-linecap="round" stroke-linejoin="round" stroke-opacity="1" stroke-width="1" d="m 146.63652,502.05657 c 4.39264,0.78462 8.74942,1.83652 13.03809,3.15079 0,0 0.0685,0.0276 0.0685,0.0276 3.59341,1.48121 7.09999,3.14656 10.50151,4.9851 -3.5679,-1.49022 -7.20446,-2.78989 -10.88911,-3.89388 0,0 -0.0699,-0.0214 -0.0699,-0.0214 -4.11493,-1.66446 -8.34123,-3.08487 -12.64909,-4.24823 z"/><path id="path4197" fill="#dd2501" fill-opacity="1" fill-rule="evenodd" stroke="#dd2501" stroke-linecap="round" stroke-linejoin="round" stroke-opacity="1" stroke-width="1" d="m 165.00335,506.39775 c -1.91438,-1.28633 -3.99322,-2.34708 -6.17919,-3.14725 0,0 -0.0185,-0.007 -0.0185,-0.007 -1.86389,-0.50784 -3.76994,-0.82645 -5.67979,-0.95299 1.88987,0.30345 3.74043,0.79494 5.51579,1.46129 0,0 0.0188,0.005 0.0188,0.005 2.19985,0.61819 4.3353,1.50539 6.34297,2.64079 z"/><path id="path4209" fill="#dd2501" fill-opacity="1" fill-rule="evenodd" stroke="#dd2501" stroke-linecap="round" stroke-linejoin="round" stroke-opacity="1" stroke-width="1" d="m 156.29041,555.97547 c -2.50659,-1.68425 -5.22852,-3.07314 -8.09071,-4.12085 0,0 -0.0243,-0.009 -0.0243,-0.009 -2.44047,-0.66494 -4.93616,-1.08211 -7.43682,-1.24779 2.4745,0.39732 4.89752,1.04085 7.22209,1.91333 0,0 0.0245,0.007 0.0245,0.007 2.88038,0.80942 5.67643,1.97108 8.30517,3.45771 z"/><ellipse id="path4215" cx="273.161" cy="316.387" fill="#2c1600" fill-opacity="1" stroke="none" stroke-dasharray="none" stroke-dashoffset="0" stroke-linecap="round" stroke-linejoin="round" stroke-miterlimit="4" stroke-opacity="1" stroke-width="3" opacity="1" rx="3.536" ry="8.586" transform="matrix(0.97390254,0.2269666,-0.2269666,0.97390254,0,0)"/><ellipse id="ellipse4217" cx="293.111" cy="316.387" fill="#2c1600" fill-opacity="1" stroke="none" stroke-dasharray="none" stroke-dashoffset="0" stroke-linecap="round" stroke-linejoin="round" stroke-miterlimit="4" stroke-opacity="1" stroke-width="3" opacity="1" rx="3.536" ry="8.586" transform="matrix(0.97390254,0.2269666,-0.2269666,0.97390254,0,0)"/><path id="path4294" fill="none" fill-opacity="1" stroke="#2c1600" stroke-dasharray="none" stroke-dashoffset="0" stroke-linecap="round" stroke-linejoin="round" stroke-miterlimit="4" stroke-opacity="1" stroke-width="3" d="m 192.65239,350.05483 3.03573,-0.82311" opacity="1"/><path id="path4296" fill="none" fill-opacity="1" stroke="#2c1600" stroke-dasharray="none" stroke-dashoffset="0" stroke-linecap="round" stroke-linejoin="round" stroke-miterlimit="4" stroke-opacity="1" stroke-width="3" d="m 225.7163,354.18721 -2.64203,-1.70671" opacity="1"/><path id="path4324" fill="#337808" fill-opacity="1" fill-rule="evenodd" stroke="none" stroke-linecap="butt" stroke-linejoin="miter" stroke-opacity="1" stroke-width="1" d="m 223.4782,323.03614 c 0.18289,0.21945 0.38538,0.42251 0.60574,0.61331 0.41837,-0.49326 4.15119,-3.38235 10.64253,-3.60738 6.67286,-0.2401 11.74187,2.4535 11.80854,2.33741 0.0667,-0.11611 -4.88476,-3.177 -11.82075,-3.23133 -6.77803,-0.0445 -10.8813,2.70495 -11.67735,3.14438 0.11101,0.27514 0.25843,0.52419 0.44129,0.74361 z"/><path id="path4328" fill="#337808" fill-opacity="1" fill-rule="evenodd" stroke="none" stroke-linecap="butt" stroke-linejoin="miter" stroke-opacity="1" stroke-width="1" d="m 219.30383,320.92641 c 0.27238,-0.086 0.53092,-0.21606 0.77288,-0.38774 -0.43288,-0.79963 -2.40275,-5.32906 -8.13236,-8.95053 -5.86792,-3.69845 -11.68827,-3.79474 -11.69482,-3.661 -0.007,0.13371 5.7145,0.60264 11.20198,4.4069 5.3428,3.69356 6.92544,8.1406 7.01134,8.78166 0.2885,-0.0417 0.56857,-0.10329 0.84098,-0.18929 z"/><ellipse id="ellipse4332" cx="272.634" cy="314.126" fill="#fff" fill-opacity="1" stroke="none" stroke-dasharray="none" stroke-dashoffset="0" stroke-linecap="round" stroke-linejoin="round" stroke-miterlimit="4" stroke-opacity="1" stroke-width="3" opacity="1" rx="1.318" ry="3.202" transform="matrix(0.97390254,0.2269666,-0.2269666,0.97390254,0,0)"/><ellipse id="ellipse4334" cx="292.77" cy="313.349" fill="#fff" fill-opacity="1" stroke="none" stroke-dasharray="none" stroke-dashoffset="0" stroke-linecap="round" stroke-linejoin="round" stroke-miterlimit="4" stroke-opacity="1" stroke-width="3" opacity="1" rx="1.281" ry="3.111" transform="matrix(0.97390254,0.2269666,-0.2269666,0.97390254,0,0)"/><path id="path4343" fill="url(#linearGradient4351)" fill-opacity="1" stroke="none" stroke-dasharray="none" stroke-dashoffset="0" stroke-linecap="round" stroke-linejoin="round" stroke-miterlimit="4" stroke-opacity="1" stroke-width="3" d="m 179.20257,368.01168 c -30.91095,58.85635 -49.02539,181.94051 -34.01689,216.10564 -17.11449,-7.01002 -7.94425,-158.46895 30.80601,-222.55824 7.69979,-12.73473 20.58034,-29.7228 36.31692,-25.96577 5.83967,1.39419 12.48587,5.04681 17.69815,10.89222 -32.07754,-22.92331 -46.05032,12.47449 -50.80419,21.52615 z" opacity="1"/><path id="path4179" fill="#dd2501" fill-opacity="1" fill-rule="evenodd" stroke="#dd2501" stroke-linecap="round" stroke-linejoin="round" stroke-opacity="1" stroke-width="1.443" d="m 152.41404,451.36994 c 8.40366,-0.22341 16.91017,1.02796 25.00863,3.723 0.043,0.0185 0.086,0.0371 0.12898,0.0557 6.84584,3.01581 13.17472,7.05985 18.715,11.91852 -5.99411,-4.28737 -12.59992,-7.62006 -19.4987,-9.87474 -0.0431,-0.0144 -0.0862,-0.0287 -0.12931,-0.043 -7.59764,-3.28922 -15.83251,-5.26933 -24.2246,-5.77944 z"/><path id="path4185" fill="#dd2501" fill-opacity="1" fill-rule="evenodd" stroke="#dd2501" stroke-linecap="round" stroke-linejoin="round" stroke-opacity="1" stroke-width="1.443" d="m 191.09093,459.9796 c -4.54119,-3.2078 -9.51486,-5.84152 -14.7637,-7.80548 -0.0838,-0.0257 -0.16776,-0.0513 -0.25171,-0.0766 -4.94324,-1.47779 -10.04227,-2.36211 -15.15406,-2.63776 5.08252,0.61304 10.07175,1.8277 14.83128,3.60108 0.081,0.0299 0.16192,0.06 0.24278,0.0902 5.27554,1.60986 10.36446,3.90761 15.09541,6.82864 z"/></g><path id="path4456" fill="url(#radialGradient4500)" fill-opacity="1" fill-rule="evenodd" stroke="#337808" stroke-dasharray="none" stroke-linecap="butt" stroke-linejoin="miter" stroke-miterlimit="4" stroke-opacity="1" stroke-width="3" d="m 307.78517,348.77953 c 6.62618,-5.16438 4.75936,-17.37993 -3.2063,-20.18993 -8.00301,-4.87563 -15.56427,-13.10671 -14.99162,-23.09056 1.71903,-8.69804 16.00546,-10.75719 19.59814,-2.40017 0.9895,6.61002 12.73003,10.23983 14.61853,2.45167 1.6033,-8.5016 -6.69665,-15.24078 -5.30346,-23.80411 0.35426,-7.2681 6.27658,-13.77601 13.70813,-14.05665 11.12063,-1.44601 23.79722,6.44955 24.39216,18.28908 0.47397,7.0688 -3.75205,13.72041 -9.36786,17.70376 -4.27681,5.45402 0.76224,15.23896 7.88948,13.89382 10.9177,-0.31355 19.04521,-11.30625 30.3445,-9.22816 11.28688,0.48597 16.47409,17.99561 6.76879,24.16635 -7.23369,4.98675 -17.47838,5.40968 -24.90797,0.60002 -5.92597,-3.18412 -13.84944,4.73004 -8.39304,10.04261 4.856,6.26856 13.30281,8.29528 18.06169,14.7255 3.94456,4.46371 8.38808,9.76831 8.04511,16.07381 -0.92695,7.59099 -9.56586,9.47698 -15.65652,6.84976 -14.13654,-4.1855 -24.07379,-15.74105 -34.09921,-25.86439 -2.51095,-3.69825 -7.16309,-4.34146 -11.19803,-3.02046 -4.82455,1.30012 -7.1703,8.45745 -10.82537,3.636 l -4.87088,-5.8273 -0.60627,-0.95065 z"/><path id="path4458" fill="#337808" fill-opacity="1" fill-rule="evenodd" stroke="none" stroke-linecap="butt" stroke-linejoin="miter" stroke-opacity="1" stroke-width="1" d="m 310.21575,354.3025 c 0.557,0.18016 1.11912,0.35065 1.68476,0.51076 -0.0483,-0.65399 2.02592,-6.33026 12.38289,-14.98482 16.17238,-13.34417 36.1427,-15.11797 36.12574,-15.37148 -0.017,-0.25356 -20.20004,0.65828 -37.27232,13.93988 -10.88851,8.36181 -13.78768,14.03881 -14.51812,15.15397 0.50491,0.31999 1.03936,0.57131 1.59705,0.75169 z"/><path id="path4460" fill="#337808" fill-opacity="1" fill-rule="evenodd" stroke="none" stroke-linecap="butt" stroke-linejoin="miter" stroke-opacity="1" stroke-width="1" d="m 311.08954,353.4176 c 0.52948,0.25121 1.07336,0.47201 1.6331,0.66014 0.094,-0.84443 2.26147,-5.96764 8.30545,-18.15406 9.48395,-18.83211 14.36014,-35.50372 14.07106,-35.59397 -0.2893,-0.0903 -5.74691,16.34132 -15.69707,34.74533 -6.54879,11.94177 -9.22665,16.83136 -9.84979,17.48187 0.49494,0.3232 1.00778,0.60949 1.53725,0.86069 z"/><path id="path4464" fill="#dd2501" fill-opacity="1" fill-rule="evenodd" stroke="#dd2501" stroke-linecap="round" stroke-linejoin="round" stroke-opacity="1" stroke-width="1" d="m 243.42919,404.78516 c 6.38306,3.23034 12.4388,7.14814 18.02789,11.67255 0,0 0.0241,0.0194 0.0241,0.0194 4.79251,4.30578 9.16229,9.05685 13.03555,14.16375 -4.14459,-4.88937 -8.74412,-9.37109 -13.71161,-13.36914 0,0 -0.0227,-0.0204 -0.0227,-0.0204 -5.30799,-4.74115 -11.13425,-8.9298 -17.35315,-12.46609 z"/><ellipse id="ellipse4472" cx="439.525" cy="155.549" fill="#2c1600" fill-opacity="1" stroke="none" stroke-dasharray="none" stroke-dashoffset="0" stroke-linecap="round" stroke-linejoin="round" stroke-miterlimit="4" stroke-opacity="1" stroke-width="3" opacity="1" rx="3.536" ry="8.586" transform="matrix(0.83104307,0.55620807,-0.55620807,0.83104307,0,0)"/><ellipse id="ellipse4474" cx="459.475" cy="155.549" fill="#2c1600" fill-opacity="1" stroke="none" stroke-dasharray="none" stroke-dashoffset="0" stroke-linecap="round" stroke-linejoin="round" stroke-miterlimit="4" stroke-opacity="1" stroke-width="3" opacity="1" rx="3.536" ry="8.586" transform="matrix(0.83104307,0.55620807,-0.55620807,0.83104307,0,0)"/><path id="path4476" fill="#a50000" fill-opacity="1" stroke="none" stroke-dasharray="none" stroke-dashoffset="0" stroke-linecap="round" stroke-linejoin="round" stroke-miterlimit="4" stroke-opacity="1" stroke-width="3" d="m 271.44103,387.05495 c 3.09051,2.68806 5.99548,5.73393 10.40487,10.00502 0,0 -9.72597,12.30205 -13.95222,7.47901 -3.88869,-4.43782 3.54735,-17.48403 3.54735,-17.48403 z" opacity="1"/><path id="path4478" fill="none" fill-opacity="1" stroke="#2c1600" stroke-dasharray="none" stroke-dashoffset="0" stroke-linecap="round" stroke-linejoin="round" stroke-miterlimit="4" stroke-opacity="1" stroke-width="3" d="m 284.3647,354.40031 3.13083,0.30173" opacity="1"/><path id="path4480" fill="none" fill-opacity="1" stroke="#2c1600" stroke-dasharray="none" stroke-dashoffset="0" stroke-linecap="round" stroke-linejoin="round" stroke-miterlimit="4" stroke-opacity="1" stroke-width="3" d="m 313.84011,369.94053 -1.86927,-2.52962" opacity="1"/><path id="path4482" fill="#337808" fill-opacity="1" fill-rule="evenodd" stroke="none" stroke-linecap="butt" stroke-linejoin="miter" stroke-opacity="1" stroke-width="1" d="m 322.74477,340.00551 c 0,0 0,0 0,0 0.0936,0.26989 0.21138,0.53137 0.35018,0.78768 0.56558,-0.31377 5.07806,-1.69884 11.23077,0.38255 6.32789,2.13137 10.11939,6.44122 10.22275,6.35615 0.10338,-0.0851 -3.44844,-4.69706 -9.91855,-7.19681 -6.32579,-2.43475 -11.13554,-1.31116 -12.03547,-1.18109 0.007,0.29661 0.0567,0.58166 0.15032,0.85152 z"/><path id="path4484" fill="#337808" fill-opacity="1" fill-rule="evenodd" stroke="none" stroke-linecap="butt" stroke-linejoin="miter" stroke-opacity="1" stroke-width="1" d="m 319.58414,336.5578 c 0.2852,0.0157 0.57301,-0.0147 0.86001,-0.0899 -0.12268,-0.90097 -0.36646,-5.8342 -4.44841,-11.24541 -4.18418,-5.53206 -9.59567,-7.67715 -9.64902,-7.55434 -0.0533,0.12278 5.13369,2.58146 8.92456,8.0782 3.6946,5.34208 3.60518,10.06149 3.45921,10.6916 0.28463,0.0629 0.56842,0.10411 0.85365,0.11983 z"/><ellipse id="ellipse4486" cx="438.998" cy="153.289" fill="#fff" fill-opacity="1" stroke="none" stroke-dasharray="none" stroke-dashoffset="0" stroke-linecap="round" stroke-linejoin="round" stroke-miterlimit="4" stroke-opacity="1" stroke-width="3" opacity="1" rx="1.318" ry="3.202" transform="matrix(0.83104307,0.55620807,-0.55620807,0.83104307,0,0)"/><ellipse id="ellipse4488" cx="459.134" cy="152.512" fill="#fff" fill-opacity="1" stroke="none" stroke-dasharray="none" stroke-dashoffset="0" stroke-linecap="round" stroke-linejoin="round" stroke-miterlimit="4" stroke-opacity="1" stroke-width="3" opacity="1" rx="1.281" ry="3.111" transform="matrix(0.83104307,0.55620807,-0.55620807,0.83104307,0,0)"/><path id="path4490" fill="#f24e3d" fill-opacity="1" stroke="none" stroke-dasharray="none" stroke-dashoffset="0" stroke-linecap="round" stroke-linejoin="round" stroke-miterlimit="4" stroke-opacity="1" stroke-width="3" d="m 269.94523,395.88424 a 8.3617332,4.790159 53.085749 0 0 -2.02976,-0.87904 c -1.18988,3.59245 -1.81943,7.48204 -0.0213,9.53416 1.92512,2.19696 4.98761,0.83207 7.75597,-1.29628 a 8.3617332,4.790159 53.085749 0 0 -3.43276,-5.56633 8.3617332,4.790159 53.085749 0 0 -2.27223,-1.79252 z" opacity="1"/><path id="path4492" fill="none" fill-opacity="1" stroke="#2c1600" stroke-dasharray="none" stroke-dashoffset="0" stroke-linecap="round" stroke-linejoin="round" stroke-miterlimit="4" stroke-opacity="1" stroke-width="1.209" d="m 271.44103,387.05495 c 3.09051,2.68806 5.99548,5.73393 10.40487,10.00502 0,0 -9.72597,12.30205 -13.95222,7.47901 -3.88869,-4.43782 3.54735,-17.48403 3.54735,-17.48403 z" opacity="1"/><path id="path4498" fill="#dd2501" fill-opacity="1" fill-rule="evenodd" stroke="#dd2501" stroke-linecap="round" stroke-linejoin="round" stroke-opacity="1" stroke-width="1.443" d="m 244.09229,456.69413 c -3.11613,-4.60458 -6.83958,-8.82475 -11.05695,-12.51544 -0.0694,-0.0537 -0.13886,-0.10719 -0.20844,-0.16058 -4.10311,-3.12793 -8.56151,-5.75564 -13.24675,-7.81837 4.53873,2.36806 8.77778,5.26605 12.60463,8.60569 0.0652,0.0566 0.13033,0.11325 0.19531,0.17007 4.36738,3.36883 8.31727,7.31536 11.7122,11.71863 z"/><path id="path4506" fill="none" fill-rule="evenodd" stroke="#2c1600" stroke-dasharray="none" stroke-linecap="round" stroke-linejoin="round" stroke-miterlimit="4" stroke-opacity="1" stroke-width="3" d="m 189.1458,391.14185 c 4.16295,4.85908 10.00763,5.88082 16.2644,5.96227"/></g></g></svg>