<svg xmlns="http://www.w3.org/2000/svg" width="1418.667" height="1706.667" preserveAspectRatio="xMidYMid meet" version="1.0" viewBox="0 0 1064 1280"><metadata>Created by potrace 1.15, written by Peter Selinger 2001-2017</metadata><g fill="#000" stroke="none"><path d="M4445 12794 c-582 -45 -1088 -170 -1610 -396 -447 -193 -693 -357 -1006 -668 -239 -237 -393 -447 -538 -729 -205 -400 -316 -803 -373 -1351 -15 -149 -16 -777 -1 -922 21 -198 -14 -639 -83 -1056 -86 -528 -198 -958 -419 -1617 -117 -349 -184 -579 -243 -835 -187 -809 -222 -1524 -96 -1970 13 -47 47 -132 75 -189 45 -90 65 -119 148 -204 258 -266 536 -424 834 -472 419 -68 830 125 1164 547 229 289 385 680 463 1162 19 113 49 381 50 432 l0 20 128 -19 c70 -11 128 -21 130 -22 2 -2 -6 -38 -17 -81 -89 -355 -120 -784 -77 -1099 31 -229 105 -480 201 -683 25 -52 44 -96 42 -98 -1 -1 -74 -51 -162 -109 -424 -285 -744 -543 -1030 -829 -286 -286 -442 -511 -515 -741 -30 -95 -38 -271 -16 -375 54 -257 239 -426 523 -475 170 -30 293 -18 588 56 713 178 1199 396 1525 682 283 249 447 572 467 925 l6 102 66 -7 c81 -10 253 -10 301 -2 l35 7 1 -142 c1 -176 20 -252 104 -421 71 -143 131 -225 265 -364 270 -280 650 -509 1089 -656 508 -171 967 -191 1305 -56 174 70 291 237 291 416 0 171 -162 574 -337 840 -155 234 -385 483 -623 675 -58 47 -106 90 -105 95 0 6 25 31 56 57 105 87 183 210 234 368 51 157 46 404 -10 571 -90 264 -259 428 -490 476 l-80 17 3 200 c4 209 -9 446 -34 625 -8 58 -14 110 -14 117 0 8 19 15 48 19 371 48 572 91 780 167 46 16 86 28 88 25 3 -2 18 -71 35 -153 55 -275 114 -475 216 -734 271 -685 700 -1200 1162 -1395 248 -105 483 -106 782 -4 379 129 667 431 788 826 162 528 77 1182 -249 1928 -116 267 -255 527 -570 1070 -447 769 -804 1729 -1039 2790 -62 283 -91 440 -91 503 0 157 -54 477 -116 687 -172 585 -508 1062 -1074 1525 -299 245 -416 327 -619 439 -423 235 -1040 418 -1626 486 -133 15 -617 28 -730 19z m2849 -5951 c7 -229 22 -439 41 -603 7 -63 10 -119 5 -124 -5 -4 -107 -6 -227 -3 -185 4 -237 9 -340 31 -136 29 -313 85 -445 141 l-87 37 -22 66 c-12 37 -39 102 -60 144 -22 43 -39 80 -39 82 0 2 19 7 43 11 23 4 111 27 196 51 84 24 159 44 167 44 27 0 473 183 609 249 77 38 143 70 146 70 3 1 9 -88 13 -196z m-4191 -178 c191 -35 401 -54 619 -57 104 -2 188 -5 188 -7 0 -2 -17 -31 -39 -65 -51 -81 -94 -169 -116 -234 -15 -47 -22 -55 -65 -77 -69 -35 -231 -98 -332 -129 -152 -47 -519 -119 -532 -105 -2 2 -9 123 -15 269 -6 146 -14 313 -17 372 l-6 107 90 -24 c49 -14 151 -36 225 -50z" transform="translate(0.000000,1280.000000) scale(0.100000,-0.100000)"/></g></svg>