<svg xmlns="http://www.w3.org/2000/svg" width="992" height="1706.667" preserveAspectRatio="xMidYMid meet" version="1.0" viewBox="0 0 744 1280"><metadata>Created by potrace 1.15, written by Peter Selinger 2001-2017</metadata><g fill="#000" stroke="none"><path d="M3935 12789 c-156 -23 -349 -100 -479 -193 -76 -54 -178 -161 -235 -246 -64 -97 -182 -346 -240 -508 -113 -315 -210 -672 -381 -1417 -126 -545 -223 -929 -290 -1148 -28 -92 -49 -174 -48 -181 2 -7 -24 -34 -57 -60 -93 -75 -260 -242 -330 -331 -80 -103 -130 -185 -207 -342 -54 -111 -62 -135 -66 -200 -3 -40 -8 -76 -13 -79 -5 -3 -19 1 -31 7 -13 7 -67 18 -120 25 -190 25 -277 59 -402 155 -26 21 -28 21 -23 3 3 -10 8 -50 12 -89 3 -38 9 -85 12 -102 l5 -33 -44 6 c-62 9 -156 -18 -257 -73 l-84 -46 48 -24 48 -25 -50 -27 c-116 -64 -204 -138 -288 -244 -64 -81 -164 -232 -148 -225 4 2 45 22 91 46 l83 43 -31 -53 c-53 -89 -108 -210 -124 -274 -17 -64 -22 -230 -8 -251 5 -8 20 8 44 48 l35 61 6 -164 c2 -90 10 -186 16 -213 17 -73 72 -180 94 -180 9 0 105 -88 212 -195 190 -189 194 -193 188 -155 l-6 39 49 -35 c27 -19 96 -69 154 -111 95 -68 119 -80 245 -122 77 -26 147 -49 155 -52 9 -3 -14 -20 -58 -44 -310 -168 -578 -460 -747 -812 -104 -217 -129 -326 -146 -618 -26 -467 -12 -819 41 -1025 37 -147 77 -215 213 -368 38 -43 68 -79 66 -81 -2 -1 -44 -17 -94 -35 -121 -45 -279 -127 -376 -197 -324 -233 -446 -571 -315 -869 106 -239 399 -500 626 -559 l55 -14 -40 -6 c-153 -26 -259 -69 -403 -166 -111 -75 -142 -107 -158 -169 -19 -76 6 -137 53 -128 18 3 24 -3 35 -36 19 -59 56 -82 134 -84 53 -1 70 -6 94 -27 62 -51 220 -75 387 -57 131 13 316 58 397 97 l56 26 37 -28 c96 -73 220 -92 364 -55 76 20 204 76 294 129 l51 30 563 -334 c310 -184 567 -334 571 -334 3 0 206 90 449 200 244 110 447 200 452 200 5 0 9 -42 9 -93 0 -108 20 -198 56 -244 36 -48 60 -58 89 -39 23 15 24 14 45 -19 51 -83 159 -86 250 -7 l40 34 40 -35 c94 -85 212 -68 324 47 53 55 155 188 249 327 56 82 61 87 115 104 249 78 546 287 753 532 66 76 72 81 102 76 23 -3 39 1 57 15 23 19 24 22 12 71 -25 108 27 117 178 31 64 -38 105 -54 138 -57 61 -6 81 9 91 72 5 28 9 40 10 28 0 -13 11 -33 22 -44 18 -18 30 -21 75 -17 79 7 131 46 168 126 16 34 33 62 38 62 4 0 10 -12 13 -27 10 -44 20 -58 47 -61 40 -5 73 32 123 135 55 115 70 135 105 132 14 0 31 -1 38 0 20 2 52 81 52 131 0 69 18 162 34 178 11 12 17 12 35 0 20 -12 24 -10 42 11 29 36 23 69 -35 188 -82 166 -83 201 -6 224 22 7 40 13 40 15 0 2 -25 27 -56 56 -56 53 -114 138 -114 169 0 10 11 19 30 22 25 6 30 11 30 36 0 36 -15 49 -102 86 -39 17 -77 40 -85 52 -13 20 -11 24 26 61 46 46 52 79 20 108 -17 16 -38 19 -118 20 -104 1 -141 8 -141 27 0 7 10 31 22 54 l22 42 -24 25 c-36 39 -85 35 -199 -18 -53 -25 -108 -48 -122 -51 -26 -6 -26 -5 -39 72 -34 213 -93 369 -264 692 -137 261 -180 359 -200 461 -40 204 -152 589 -246 844 -27 76 -50 139 -50 141 0 2 72 41 159 86 131 67 163 88 177 115 11 21 25 32 36 31 12 -1 60 48 147 151 l128 154 13 90 c10 78 14 87 25 71 21 -27 30 -9 56 102 15 67 22 125 20 177 -2 74 -2 76 19 71 l22 -6 -7 174 -8 174 -73 147 c-41 81 -74 150 -74 152 0 3 26 -4 57 -15 31 -10 60 -18 65 -17 12 5 -116 191 -167 241 -64 64 -143 117 -266 177 -57 28 -105 52 -107 55 -3 2 18 43 47 91 28 47 51 88 51 91 0 15 -72 -9 -125 -41 -32 -19 -71 -38 -86 -41 -35 -8 -98 9 -138 37 l-32 23 -3 160 c-2 115 -9 188 -24 261 -46 215 -143 442 -275 642 -65 98 -83 134 -51 102 6 -6 59 32 149 106 822 680 1375 1426 1657 2235 41 119 43 129 42 239 -1 461 -363 799 -819 766 -181 -14 -347 -61 -518 -148 -296 -152 -515 -397 -721 -808 -99 -199 -169 -374 -333 -835 -130 -364 -221 -598 -292 -747 l-42 -86 -72 33 c-95 43 -242 91 -358 116 -128 28 -413 36 -559 16 -58 -8 -107 -13 -109 -11 -6 6 47 138 100 249 137 287 318 536 768 1060 446 519 579 717 636 954 35 144 8 347 -68 496 -162 324 -529 501 -922 444z m1775 -7659 c-7 -45 -16 -78 -20 -73 -9 10 -40 102 -40 118 0 11 61 46 69 39 2 -2 -2 -40 -9 -84z" transform="translate(0.000000,1280.000000) scale(0.100000,-0.100000)"/></g></svg>